<?xml version="1.0" standalone="no"?>
<!DOCTYPE svg PUBLIC "-//W3C//DTD SVG 20010904//EN"
 "http://www.w3.org/TR/2001/REC-SVG-20010904/DTD/svg10.dtd">
<svg version="1.0" xmlns="http://www.w3.org/2000/svg"
 width="1000.000000pt" height="667.000000pt" viewBox="0 0 1000.000000 667.000000"
 preserveAspectRatio="xMidYMid meet">

<g transform="translate(0.000000,667.000000) scale(0.100000,-0.100000)"
fill="#000000" stroke="none">
<path d="M1110 6637 c0 -17 -4 -47 -9 -64 -7 -23 -5 -51 6 -95 8 -35 18 -94
22 -133 6 -52 8 -20 8 128 1 161 -2 197 -13 197 -9 0 -14 -11 -14 -33z"/>
<path d="M3566 6595 c-12 -55 -25 -180 -26 -234 0 -48 5 -60 39 -105 36 -47
50 -80 65 -148 8 -34 22 -35 61 -3 30 24 30 26 33 135 4 119 -6 152 -48 165
-33 11 -23 24 40 52 33 14 60 32 60 39 0 22 -33 16 -95 -16 -94 -49 -115 -38
-98 51 9 42 8 53 -7 72 l-18 21 -6 -29z"/>
<path d="M1095 6214 c-38 -56 -40 -63 -38 -129 1 -60 5 -116 12 -197 0 -10 5
-18 10 -18 5 0 9 39 9 88 0 62 7 117 26 191 15 57 25 108 24 113 -2 6 -22 -16
-43 -48z"/>
<path d="M7244 6246 c-9 -23 0 -58 16 -66 8 -4 29 -15 46 -24 38 -19 94 -12
94 13 0 9 -12 30 -28 48 -21 25 -37 33 -75 37 -36 4 -49 2 -53 -8z"/>
<path d="M3876 6181 c-24 -26 -17 -54 16 -65 37 -13 44 -3 28 44 -15 45 -20
48 -44 21z"/>
<path d="M3756 6017 c-26 -9 -54 -24 -63 -32 -8 -8 -28 -15 -44 -15 -16 0 -29
-4 -29 -10 0 -16 -15 -12 -55 16 -30 20 -40 23 -46 12 -22 -34 12 -64 61 -53
16 4 31 2 35 -5 3 -5 10 -8 15 -5 5 3 19 1 31 -5 23 -13 226 -39 302 -40 54 0
60 13 30 75 -12 26 -14 38 -6 43 8 5 8 12 -1 24 -11 15 -27 17 -97 15 -51 -1
-104 -9 -133 -20z"/>
<path d="M8394 6004 c-12 -65 38 -73 61 -10 7 21 6 29 -5 36 -31 20 -49 11
-56 -26z"/>
<path d="M8170 6008 c0 -19 2 -20 10 -8 13 19 13 30 0 30 -5 0 -10 -10 -10
-22z"/>
<path d="M7313 5993 c-15 -3 -25 -14 -29 -31 -3 -15 -8 -33 -10 -41 -4 -13 32
-81 43 -81 11 0 32 35 33 53 0 11 8 32 17 47 14 24 14 31 4 44 -14 16 -18 17
-58 9z"/>
<path d="M8051 5864 c-66 -15 -78 -27 -87 -81 -6 -39 -5 -43 15 -43 12 0 21
-6 21 -15 0 -8 6 -15 13 -15 18 0 34 -35 42 -92 3 -27 12 -48 18 -49 7 0 21
-3 32 -5 11 -3 72 -6 135 -8 150 -4 202 -24 259 -102 16 -22 20 -38 16 -57 -4
-15 -11 -24 -16 -21 -5 3 -28 -15 -52 -39 -35 -37 -46 -43 -61 -35 -10 6 -47
11 -82 12 -35 0 -64 4 -64 9 0 4 -9 2 -19 -5 -15 -9 -25 -9 -43 0 -13 6 -32
13 -43 14 -11 2 -26 11 -33 21 -7 9 -17 17 -21 17 -11 0 -49 -134 -57 -203 -9
-83 -25 -91 -155 -82 -119 9 -152 27 -153 86 0 127 18 342 31 355 8 7 13 22
11 31 -1 10 1 24 6 32 13 21 25 82 19 97 -4 10 -9 11 -18 4 -13 -11 -55 -17
-179 -28 -77 -7 -80 -6 -110 21 -61 55 -136 107 -154 107 -11 0 -31 -11 -46
-25 -22 -21 -26 -32 -26 -82 1 -32 7 -76 15 -98 19 -51 19 -102 1 -112 -21
-12 -25 -113 -6 -143 9 -13 11 -13 20 0 8 13 10 12 10 -2 0 -10 -7 -18 -15
-18 -14 0 -23 -34 -23 -90 -1 -26 -10 -85 -18 -109 -7 -21 -34 6 -34 34 0 13
-7 25 -14 28 -22 9 -46 102 -46 180 0 68 -1 70 -40 110 -23 22 -44 46 -49 54
-5 10 -11 3 -19 -25 -7 -21 -20 -46 -31 -56 -22 -20 -78 -30 -86 -15 -9 13
-49 11 -64 -3 -10 -11 -16 -8 -31 12 -34 44 -69 123 -84 189 -17 72 -18 74
-39 65 -16 -6 -47 -88 -47 -122 0 -9 -3 -13 -6 -9 -3 3 -15 -3 -27 -14 -19
-18 -36 -23 -54 -16 -4 1 -10 -11 -14 -28 -9 -48 1 -579 12 -590 6 -6 22 -4
44 4 19 7 40 9 45 6 6 -4 66 -11 133 -16 242 -18 262 -20 297 -29 19 -6 56
-10 81 -10 26 0 64 -6 85 -13 27 -9 70 -12 137 -9 61 3 102 0 110 -6 21 -18
195 -35 278 -28 56 5 86 3 115 -8 51 -20 216 -37 384 -40 74 -1 159 -8 189
-16 80 -19 179 -9 248 26 56 28 59 31 78 94 13 45 20 93 19 155 0 119 -19 155
-134 248 -47 39 -94 83 -105 98 -11 16 -25 29 -32 29 -16 0 -5 29 21 57 12 12
22 35 22 50 1 15 3 49 4 76 3 51 -14 76 -54 77 -28 0 -95 41 -102 62 -3 10 -3
32 1 48 6 25 4 30 -13 30 -11 0 -22 6 -25 13 -2 6 -10 -7 -16 -30 -6 -24 -17
-42 -23 -40 -6 1 -14 -9 -18 -23 -4 -19 -15 -26 -48 -33 -25 -5 -42 -14 -42
-22 0 -10 -7 -11 -27 -6 -16 5 -27 13 -26 19 1 5 -4 13 -12 16 -9 3 -15 0 -15
-8 0 -20 -69 -29 -86 -11 -9 9 -10 16 -4 20 5 3 10 1 10 -4 0 -14 37 -14 45
-1 3 5 -5 15 -19 22 -26 11 -34 32 -17 43 11 6 24 83 19 111 -3 18 -6 19 -57
8z m-531 -282 c0 -4 -5 -13 -11 -19 -7 -7 -8 -17 -1 -29 5 -11 12 -33 15 -49
5 -26 1 -33 -24 -47 -16 -10 -28 -23 -27 -30 2 -8 -9 -14 -29 -16 -19 -2 -33
1 -33 7 0 6 8 11 17 11 14 0 12 5 -8 26 -25 27 -34 98 -13 112 6 4 13 15 17
25 5 13 18 17 52 17 25 0 45 -4 45 -8z m-871 -261 c22 -40 24 -99 5 -150 -13
-37 -21 -48 -30 -40 -15 12 -34 87 -34 134 0 65 36 99 59 56z"/>
<path d="M1071 5844 c0 -11 3 -14 6 -6 3 7 2 16 -1 19 -3 4 -6 -2 -5 -13z"/>
<path d="M3689 5752 c-18 -8 -89 -69 -89 -77 0 -2 19 -17 42 -32 48 -32 153
-47 438 -63 181 -9 210 -7 210 20 0 22 -44 101 -69 124 -17 15 -19 15 -25 1
-4 -12 -10 -14 -25 -5 -11 5 -37 10 -59 10 -21 0 -63 4 -93 9 -72 12 -310 22
-330 13z"/>
<path d="M0 5716 c0 -10 10 -16 28 -17 73 -4 118 -9 257 -29 83 -12 161 -23
175 -26 14 -2 6 3 -16 10 -23 8 -93 22 -155 31 -63 9 -130 20 -149 25 -19 4
-59 11 -87 15 -45 6 -53 4 -53 -9z"/>
<path d="M7900 5701 c0 -6 5 -13 10 -16 6 -3 10 1 10 9 0 9 -4 16 -10 16 -5 0
-10 -4 -10 -9z"/>
<path d="M3497 5694 c-3 -4 -2 -15 4 -25 10 -19 37 -16 51 5 11 16 -41 34 -55
20z"/>
<path d="M1070 5656 c0 -9 -7 -27 -16 -41 -8 -13 -18 -50 -21 -82 -3 -32 -9
-62 -13 -68 -4 -5 -11 -35 -14 -65 -4 -30 -9 -72 -12 -92 -3 -21 -2 -38 3 -38
5 0 25 28 45 63 30 51 40 82 54 173 l17 111 -21 28 c-16 20 -22 23 -22 11z"/>
<path d="M640 5610 c34 -11 60 -11 35 0 -11 5 -29 8 -40 8 -16 0 -15 -2 5 -8z"/>
<path d="M708 5593 c7 -3 16 -2 19 1 4 3 -2 6 -13 5 -11 0 -14 -3 -6 -6z"/>
<path d="M3750 5436 c0 -14 105 -106 121 -106 5 0 9 -5 9 -11 0 -15 41 -48 60
-49 9 0 16 9 16 20 0 11 -6 20 -13 20 -7 0 -13 9 -13 20 0 15 -7 20 -29 20
-24 0 -29 4 -28 21 1 15 6 19 23 15 25 -7 35 1 27 20 -3 9 -20 14 -43 14 -21
0 -54 7 -73 15 -45 19 -57 19 -57 1z"/>
<path d="M3950 5387 c13 -14 26 -15 80 -8 l65 8 -55 2 c-30 1 -66 4 -80 7 -23
6 -24 5 -10 -9z"/>
<path d="M4205 5390 c27 -12 43 -12 25 0 -8 5 -22 9 -30 9 -10 0 -8 -3 5 -9z"/>
<path d="M4446 5343 c-3 -3 -37 -5 -76 -4 -58 2 -70 0 -70 -13 0 -9 7 -16 16
-16 8 0 13 -3 11 -8 -3 -4 17 -8 44 -10 28 -2 71 -12 96 -23 25 -11 47 -18 49
-16 2 2 -12 24 -30 50 -18 25 -36 44 -40 40z"/>
<path d="M4028 5303 c6 -2 18 -2 25 0 6 3 1 5 -13 5 -14 0 -19 -2 -12 -5z"/>
<path d="M3102 5239 c-15 -24 -10 -35 11 -22 8 5 12 15 8 25 -6 16 -7 16 -19
-3z"/>
<path d="M65 5220 c3 -5 10 -10 16 -10 5 0 9 5 9 10 0 6 -7 10 -16 10 -8 0
-12 -4 -9 -10z"/>
<path d="M13 5204 c-9 -4 -12 -149 -12 -582 l-1 -577 40 -47 c45 -52 105 -80
224 -103 50 -9 113 -34 207 -82 75 -37 151 -75 170 -84 19 -8 79 -39 133 -67
207 -108 319 -152 558 -218 58 -15 85 -34 51 -34 -14 0 -1055 -114 -1331 -145
-47 -6 -52 -9 -52 -31 0 -23 3 -24 32 -19 18 3 224 28 458 55 234 28 558 66
720 86 314 38 415 40 545 10 33 -8 139 -26 235 -41 180 -27 377 -67 350 -71
-8 -1 -49 -7 -90 -13 -41 -6 -273 -38 -515 -71 -243 -33 -535 -73 -650 -89
-116 -16 -407 -56 -648 -88 l-437 -58 0 -388 0 -388 38 6 c37 7 223 44 342 70
116 25 773 146 865 160 50 7 209 36 355 64 146 29 416 81 600 116 392 76 455
88 613 121 65 13 220 42 345 64 292 53 542 99 566 107 12 3 15 8 7 12 -7 5 3
14 26 23 85 36 95 37 120 12 17 -17 18 -17 67 -3 26 7 35 14 27 19 -7 4 -22 5
-33 2 -11 -3 -24 3 -32 13 -9 13 -15 15 -20 7 -13 -21 -28 -13 -20 10 6 21 6
21 -11 4 -15 -15 -30 -16 -118 -11 -55 4 -110 11 -121 16 -69 31 -121 66 -125
84 -4 24 -19 35 -48 35 -12 0 -27 9 -33 19 -7 13 -26 22 -58 27 -26 3 -53 11
-60 17 -9 7 -16 7 -20 0 -4 -5 -18 -13 -31 -16 -20 -5 -32 1 -60 32 -30 32
-45 39 -91 46 -30 4 -49 10 -42 12 10 4 8 9 -7 20 -12 8 -21 23 -21 34 0 12
-9 32 -20 46 -11 14 -20 32 -20 39 0 8 -9 14 -20 14 -11 0 -20 -7 -20 -15 0
-8 -9 -15 -20 -15 -12 0 -20 -7 -20 -16 0 -8 -6 -22 -14 -30 -19 -18 -9 -52
23 -80 23 -20 24 -23 9 -38 -14 -13 -21 -14 -41 -5 -17 8 -34 8 -54 2 -23 -8
-37 -5 -83 19 -30 16 -62 35 -70 43 -21 19 -35 19 -64 0 -19 -13 -33 -14 -77
-5 -70 14 -178 58 -206 83 -28 25 -30 47 -3 47 23 0 23 0 10 34 -5 14 -16 26
-23 26 -8 0 -22 9 -32 20 -25 28 -50 27 -35 -1 11 -19 10 -20 -9 -10 -24 13
-36 31 -21 31 6 0 8 5 5 11 -5 6 -16 4 -33 -7 -25 -16 -26 -16 -40 4 -8 12
-24 22 -36 22 -12 0 -42 18 -66 41 -36 34 -45 38 -52 25 -14 -25 -47 -19 -61
12 -6 15 -20 36 -31 47 -10 11 -15 13 -11 5 6 -10 1 -8 -13 4 -12 11 -22 27
-22 38 0 10 -5 18 -11 18 -7 0 -9 -10 -7 -25 3 -14 1 -25 -3 -25 -5 0 -9 6
-10 13 0 6 -4 3 -9 -8 l-9 -20 -2 20 c-1 11 -3 27 -3 35 -1 8 -7 14 -13 13
-18 -4 31 85 50 90 10 3 17 15 17 31 0 14 4 26 9 26 5 0 19 13 30 29 21 29 21
29 1 24 -12 -3 -20 0 -20 7 0 9 -7 7 -22 -6 -12 -10 -18 -14 -15 -7 4 6 3 14
-2 17 -11 7 -23 -22 -15 -36 4 -6 1 -9 -7 -6 -15 5 -63 -77 -54 -92 4 -6 -5
-14 -19 -20 -19 -7 -26 -17 -26 -35 0 -14 -5 -25 -11 -25 -6 0 -8 9 -4 20 4
11 2 20 -4 20 -6 0 -11 -7 -11 -16 0 -9 -6 -14 -12 -11 -7 2 -11 11 -10 18 2
8 6 25 8 39 3 23 3 23 -7 5 -6 -12 -18 -26 -28 -32 -16 -10 -18 -8 -19 19 -1
41 -9 46 -21 14 -15 -37 -21 -33 -10 6 12 43 12 71 -1 63 -6 -3 -10 5 -10 18
0 23 -3 25 -42 23 -23 -1 -43 -7 -46 -14 -2 -6 -10 -8 -19 -5 -12 5 -14 1 -8
-15 12 -40 -2 -59 -40 -56 -26 2 -34 0 -29 -9 5 -9 4 -9 -6 -1 -7 7 -9 21 -5
33 8 27 25 27 25 0 0 -18 2 -19 15 -9 22 18 19 29 -11 40 -19 8 -24 15 -19 30
4 12 2 20 -5 20 -6 0 -8 -6 -4 -12 5 -10 4 -10 -6 -1 -11 10 -11 16 3 31 25
27 21 36 -8 15 -13 -10 -25 -26 -25 -35 0 -11 -5 -15 -15 -12 -8 4 -15 1 -15
-5 0 -6 5 -11 10 -11 6 0 10 -6 10 -14 0 -16 -37 -28 -46 -15 -9 15 -44 10
-44 -6 0 -8 -7 -15 -15 -15 -8 0 -15 7 -15 16 0 8 -7 22 -15 30 -11 11 -15 12
-15 3 0 -7 -3 -9 -7 -6 -3 4 0 18 7 32 16 30 4 48 -14 22 -7 -9 -20 -17 -29
-17 -20 0 -30 28 -12 32 8 2 11 8 7 14 -10 15 -62 27 -62 14 0 -5 5 -9 11 -8
24 6 19 -22 -5 -28 -28 -7 -46 1 -46 19 0 7 4 6 10 -3 8 -12 10 -11 10 7 0 13
-9 27 -21 34 -20 10 -21 9 -16 -12 3 -13 1 -29 -5 -36 -12 -15 -48 -18 -48 -3
0 6 -7 10 -16 10 -10 0 -14 6 -10 15 3 8 1 15 -4 15 -6 0 -10 -7 -10 -15 0 -8
-7 -15 -16 -15 -8 0 -13 3 -11 8 3 4 1 17 -4 29 -10 27 -39 21 -39 -8 0 -10
-5 -19 -11 -19 -5 0 -8 4 -4 10 8 13 -35 60 -57 60 -21 0 -23 -11 -6 -28 6 -6
8 -15 4 -19 -4 -5 -13 0 -20 10 -7 9 -20 17 -29 17 -8 0 -17 5 -19 11 -3 9 -9
9 -25 0 -26 -13 -46 -15 -39 -2 12 19 -6 42 -28 35 l-21 -7 20 23 20 23 -23
-14 c-21 -13 -25 -12 -43 10 -10 13 -19 18 -19 12 0 -6 -6 -11 -13 -11 -8 0
-13 15 -14 39 -2 32 2 40 19 44 12 4 17 10 13 17 -5 9 -10 9 -18 1 -16 -16
-30 -13 -23 4 3 8 -1 21 -9 29 -20 19 -19 23 6 29 18 5 20 2 16 -19 -3 -16 0
-23 8 -22 12 3 84 -69 85 -84 0 -14 20 -8 20 5 0 19 38 62 47 53 4 -4 1 -11
-7 -16 -12 -7 -12 -12 -2 -22 9 -9 12 -9 12 1 0 8 6 11 15 7 15 -6 19 3 16 41
-1 12 6 26 16 31 10 6 15 14 11 18 -5 4 -3 13 3 21 9 10 7 13 -7 14 -25 2 -26
2 -45 -6 -10 -4 -19 2 -27 17 -6 13 -11 17 -11 11 -1 -8 -9 -5 -22 8 -25 25
-19 35 11 19 27 -15 32 -10 15 13 -10 14 -18 16 -30 10 -19 -11 -75 -5 -75 8
0 5 -7 6 -16 2 -13 -5 -15 -2 -10 13 7 25 -8 53 -17 30 -4 -9 -10 -16 -15 -16
-12 0 -10 44 2 52 6 4 -1 8 -16 8 -40 0 -43 -1 -41 -11 2 -5 -9 -9 -25 -9 -21
0 -24 2 -12 10 13 9 13 10 0 10 -15 0 -40 42 -40 67 0 8 -7 10 -17 6 -14 -5
-13 -2 4 13 18 16 20 23 12 44 -9 23 -11 23 -20 8 -6 -10 -19 -18 -30 -18 -11
0 -17 5 -14 10 3 6 3 19 0 31 -5 15 -12 18 -27 13 -18 -5 -20 -3 -14 21 4 17
3 24 -4 20 -5 -3 -10 1 -10 9 0 13 -4 14 -17 6 -10 -5 -31 -14 -46 -20 -17 -6
-25 -14 -21 -21 4 -7 1 -10 -7 -7 -8 3 -13 11 -11 18 1 7 -3 19 -10 28 -11 13
-9 15 14 10 15 -3 25 -1 22 3 -3 5 -12 9 -20 9 -8 0 -14 5 -14 10 0 6 4 10 9
10 15 0 23 52 9 61 -7 4 -9 11 -6 15 8 8 33 -16 34 -33 2 -28 4 -33 14 -33 5
0 7 6 4 14 -3 8 0 17 6 21 6 4 2 13 -12 26 -21 18 -22 20 -5 29 18 12 23 30 8
30 -5 0 -17 -7 -25 -16 -9 -8 -16 -11 -16 -5 0 6 14 18 30 26 30 16 32 35 4
35 -18 0 -18 4 1 39 16 32 32 41 78 42 31 1 31 1 7 9 l-25 8 25 1 25 2 -23 12
c-12 7 -20 16 -17 19 3 3 -5 8 -19 12 -17 4 -26 15 -31 37 -5 23 -10 28 -18
20 -17 -17 -27 -13 -27 9 0 25 -17 26 -24 3 -3 -11 -4 -7 -3 7 2 21 -2 25 -21
23 -13 -2 -21 1 -18 5 2 4 1 14 -4 22 -8 13 -11 13 -22 1 -10 -10 -10 -12 0
-7 8 5 12 -2 12 -23 0 -21 -5 -31 -15 -31 -13 0 -21 26 -16 54 1 5 -8 15 -19
23 -16 11 -19 18 -11 26 21 21 12 32 -16 21z m107 -164 c11 -8 7 -9 -15 -4
-37 8 -45 14 -19 14 10 0 26 -5 34 -10z m77 -86 c-3 -3 -12 -4 -19 -1 -8 3 -5
6 6 6 11 1 17 -2 13 -5z m-28 -38 c-12 -10 -60 -16 -54 -6 3 5 18 10 32 10 15
0 24 -2 22 -4z m-32 -52 c-3 -3 -12 -4 -19 -1 -8 3 -5 6 6 6 11 1 17 -2 13 -5z
m13 -57 c0 -7 -6 -19 -12 -26 -11 -10 -9 -15 6 -27 11 -8 15 -14 9 -14 -20 0
-35 29 -29 55 7 26 26 35 26 12z m-73 -79 c-3 -8 -6 -5 -6 6 -1 11 2 17 5 13
3 -3 4 -12 1 -19z m30 -90 c-3 -8 -6 -5 -6 6 -1 11 2 17 5 13 3 -3 4 -12 1
-19z m140 -40 c-3 -8 -6 -5 -6 6 -1 11 2 17 5 13 3 -3 4 -12 1 -19z m-27 -128
c0 -5 -5 -10 -11 -10 -5 0 -7 5 -4 10 3 6 8 10 11 10 2 0 4 -4 4 -10z m-80
-124 c0 -3 -4 -8 -10 -11 -5 -3 -10 -1 -10 4 0 6 5 11 10 11 6 0 10 -2 10 -4z
m80 -46 c0 -5 -8 -10 -17 -10 -15 0 -16 2 -3 10 19 12 20 12 20 0z m-70 -39
c0 -6 -4 -13 -10 -16 -5 -3 -10 1 -10 9 0 9 5 16 10 16 6 0 10 -4 10 -9z m235
-3 c14 -6 25 -18 25 -27 1 -14 2 -14 13 1 8 10 18 13 26 9 9 -6 8 -11 -4 -21
-8 -7 -15 -19 -15 -26 0 -8 -6 -14 -13 -14 -9 0 -12 -10 -9 -31 3 -20 0 -34
-9 -40 -23 -14 -34 -10 -13 5 10 8 16 18 12 22 -4 4 -14 1 -23 -6 -9 -8 -15
-8 -15 -2 0 6 4 13 9 17 5 3 7 21 4 40 -4 28 -2 35 11 35 9 0 16 5 16 11 0 7
-12 9 -36 5 -33 -7 -35 -6 -24 13 13 25 12 24 45 9z m183 -19 c-3 -8 -7 -3
-11 10 -4 17 -3 21 5 13 5 -5 8 -16 6 -23z m-403 -9 c3 -5 1 -10 -4 -10 -6 0
-11 5 -11 10 0 6 2 10 4 10 3 0 8 -4 11 -10z m505 -9 c0 -12 -28 -22 -34 -12
-3 5 -3 11 1 15 9 9 33 7 33 -3z m35 -31 c3 -5 2 -10 -4 -10 -5 0 -13 5 -16
10 -3 6 -2 10 4 10 5 0 13 -4 16 -10z m-446 -33 c12 -15 12 -17 -3 -11 -9 3
-16 13 -16 22 0 8 1 13 3 11 1 -2 9 -12 16 -22z m199 -9 c15 -15 16 -72 2 -63
-6 4 -8 11 -5 16 4 5 2 9 -4 9 -5 0 -13 -9 -16 -20 -4 -11 -11 -18 -16 -15 -5
4 -5 14 1 25 5 10 10 28 10 39 0 24 10 27 28 9z m44 -18 c0 -11 1 -25 2 -32 1
-6 -6 -14 -14 -16 -13 -5 -13 -3 -1 11 7 10 9 17 4 17 -5 0 -9 9 -10 20 -1 11
2 20 8 20 5 0 10 -9 11 -20z m-145 -26 c-3 -3 -12 -4 -19 -1 -8 3 -5 6 6 6 11
1 17 -2 13 -5z m283 -134 c0 -5 -2 -10 -4 -10 -3 0 -8 5 -11 10 -3 6 -1 10 4
10 6 0 11 -4 11 -10z m90 0 c0 -5 -5 -10 -11 -10 -5 0 -7 5 -4 10 3 6 8 10 11
10 2 0 4 -4 4 -10z m-20 -40 c-19 -13 -30 -13 -30 0 0 6 10 10 23 10 18 0 19
-2 7 -10z m1156 -77 c-10 -10 -19 5 -10 18 6 11 8 11 12 0 2 -7 1 -15 -2 -18z
m-711 -2 c3 -5 1 -12 -5 -16 -5 -3 -10 1 -10 9 0 18 6 21 15 7z m345 -31 c0
-11 0 -23 1 -27 0 -5 -8 -9 -18 -10 -10 -2 -13 0 -7 3 6 2 9 16 6 29 -2 15 0
25 7 25 6 0 11 -9 11 -20z m45 -29 c-3 -6 -11 -11 -17 -11 -6 0 -6 6 2 15 14
17 26 13 15 -4z m295 9 c0 -5 -4 -10 -10 -10 -5 0 -10 5 -10 10 0 6 5 10 10
10 6 0 10 -4 10 -10z m-372 -42 c9 -9 12 -9 12 0 0 7 7 12 15 12 22 0 18 -14
-9 -26 -19 -9 -25 -8 -35 8 -13 20 -1 24 17 6z m284 -63 c4 -39 -7 -49 -14
-12 -4 21 0 47 7 47 1 0 5 -16 7 -35z m403 -775 c4 -6 -15 -10 -50 -10 -35 0
-54 4 -50 10 3 6 26 10 50 10 24 0 47 -4 50 -10z"/>
<path d="M3071 5149 c-11 -24 -27 -55 -35 -69 -8 -14 -43 -97 -76 -185 -34
-88 -69 -176 -77 -196 -8 -20 -13 -45 -11 -55 3 -15 11 -10 50 28 26 26 59 50
73 54 28 7 89 89 79 105 -2 5 -1 16 4 26 32 63 40 92 37 126 -3 22 0 37 6 37
6 0 9 7 6 15 -4 8 -2 17 3 20 13 8 13 55 0 55 -5 0 -10 7 -10 16 0 8 -4 13 -9
9 -5 -3 -12 -1 -15 4 -4 5 3 11 15 13 l21 3 -21 19 c-20 19 -21 18 -40 -25z"/>
<path d="M3342 5128 c-8 -14 -12 -34 -10 -44 4 -17 5 -17 17 4 7 13 11 33 9
44 -3 20 -4 20 -16 -4z"/>
<path d="M3311 5026 c-7 -8 -11 -32 -9 -52 l3 -38 65 -2 c36 -1 55 0 42 3 -20
4 -49 39 -45 54 1 4 -8 16 -21 28 -20 19 -25 20 -35 7z"/>
<path d="M473 4933 c9 -2 23 -2 30 0 6 3 -1 5 -18 5 -16 0 -22 -2 -12 -5z"/>
<path d="M528 4923 c6 -2 18 -2 25 0 6 3 1 5 -13 5 -14 0 -19 -2 -12 -5z"/>
<path d="M253 4913 c-9 -3 -10 -9 -1 -23 10 -15 9 -23 -5 -38 -9 -10 -14 -22
-10 -25 3 -4 -2 -14 -13 -22 -19 -14 -19 -14 3 -36 21 -22 22 -22 17 -2 -7 24
33 66 54 58 7 -2 10 0 7 5 -3 6 -1 10 4 10 6 0 11 -7 11 -16 0 -13 3 -14 13
-5 10 8 17 7 26 -2 11 -10 12 -8 6 11 -4 15 -2 22 7 22 8 0 21 9 31 20 9 11
13 20 7 20 -5 0 -12 -4 -15 -10 -3 -5 -17 -10 -31 -10 -15 0 -24 -6 -24 -15 0
-18 -16 -20 -26 -4 -4 7 -9 8 -13 1 -3 -6 -20 -13 -36 -17 l-30 -7 25 19 c43
31 37 85 -7 66z"/>
<path d="M5220 4881 c0 -5 5 -13 10 -16 6 -3 10 -2 10 4 0 5 -4 13 -10 16 -5
3 -10 2 -10 -4z"/>
<path d="M476 4865 c6 -14 53 -30 62 -20 8 8 -2 15 -36 24 -24 7 -30 6 -26 -4z"/>
<path d="M578 4868 c12 -6 22 -15 22 -20 0 -5 5 -6 12 -2 14 9 -18 34 -41 33
-11 0 -8 -4 7 -11z"/>
<path d="M659 4856 c10 -12 9 -15 -6 -19 -10 -3 1 -5 25 -6 23 0 42 -5 42 -11
0 -5 10 -12 23 -15 16 -4 23 -14 24 -37 1 -16 7 -36 13 -43 5 -6 7 -14 4 -17
-2 -3 2 -8 10 -11 12 -5 14 0 9 24 -5 25 -3 28 12 22 13 -4 16 -3 11 5 -4 7
-13 12 -20 12 -8 0 -14 6 -13 13 1 37 -4 47 -27 47 -12 0 -45 12 -71 26 -27
14 -43 19 -36 10z"/>
<path d="M5893 4837 c-3 -5 -7 -133 -10 -284 -4 -290 -2 -308 41 -298 11 3 91
9 176 15 85 5 214 14 285 20 146 13 555 32 685 33 89 0 307 -28 325 -43 14
-11 120 -30 171 -30 67 0 92 14 96 52 4 46 36 60 117 54 35 -3 75 -13 88 -22
21 -13 24 -22 21 -62 -3 -43 -1 -48 26 -60 36 -18 251 -45 292 -37 31 5 32 8
38 68 4 34 4 70 1 79 -12 30 -75 50 -179 58 -56 5 -132 15 -171 24 -38 8 -95
18 -126 21 -74 8 -119 36 -119 74 0 48 16 53 187 57 157 4 400 -20 478 -47 17
-6 103 -15 193 -20 148 -8 166 -8 195 8 59 33 69 53 45 85 -25 32 -298 59
-633 62 -172 2 -764 51 -817 67 -32 10 -44 9 -86 -9 -49 -21 -51 -21 -252 -7
-151 11 -219 12 -268 5 -87 -14 -111 -7 -189 55 -102 81 -136 89 -391 90 -118
0 -216 -3 -219 -8z"/>
<path d="M3710 4830 c20 -13 73 -13 65 0 -3 6 -23 10 -43 10 -28 0 -33 -3 -22
-10z"/>
<path d="M1220 4800 c0 -5 7 -10 16 -10 8 0 12 5 9 10 -3 6 -10 10 -16 10 -5
0 -9 -4 -9 -10z"/>
<path d="M5550 4768 c0 -41 12 -55 30 -33 6 7 17 12 24 9 17 -7 39 21 34 43
-2 13 -13 18 -46 18 -42 0 -42 0 -42 -37z"/>
<path d="M548 4793 c-16 -4 -20 -13 -17 -40 0 -5 -10 -11 -23 -15 -23 -6 -23
-6 2 -7 19 -1 22 -3 10 -11 -8 -5 -11 -12 -7 -16 9 -9 37 15 37 31 0 8 6 16
13 18 9 4 9 6 -1 6 -10 1 -10 6 -2 21 6 11 9 19 8 19 -2 -1 -11 -3 -20 -6z"/>
<path d="M290 4776 c0 -8 5 -18 10 -21 6 -3 10 3 10 14 0 12 -4 21 -10 21 -5
0 -10 -6 -10 -14z"/>
<path d="M430 4780 c0 -5 5 -10 10 -10 6 0 10 5 10 10 0 6 -4 10 -10 10 -5 0
-10 -4 -10 -10z"/>
<path d="M470 4749 c0 -5 5 -7 10 -4 6 3 10 8 10 11 0 2 -4 4 -10 4 -5 0 -10
-5 -10 -11z"/>
<path d="M725 4750 c3 -5 10 -10 16 -10 5 0 9 5 9 10 0 6 -7 10 -16 10 -8 0
-12 -4 -9 -10z"/>
<path d="M868 4738 c12 -12 25 -19 28 -15 4 4 -1 14 -12 22 -29 22 -41 18 -16
-7z"/>
<path d="M9513 4713 c-6 -21 -16 -57 -23 -81 l-11 -44 -42 7 c-30 5 -51 17
-74 43 -29 31 -36 34 -55 24 -35 -16 -77 -24 -148 -26 -158 -5 -246 -25 -170
-39 14 -2 -30 -5 -97 -6 -68 0 -123 -5 -123 -9 0 -5 43 -8 95 -7 52 1 95 -2
95 -6 0 -5 39 -9 88 -9 126 -1 154 -9 211 -69 27 -28 54 -51 61 -51 6 0 9 -4
6 -9 -8 -13 75 -26 83 -13 3 5 56 19 118 31 92 18 119 20 153 11 23 -6 54 -10
68 -8 19 2 27 -2 27 -12 0 -11 -8 -14 -28 -12 -15 2 -34 -1 -41 -7 -8 -6 -53
-13 -102 -15 -117 -5 -300 -25 -330 -36 -48 -19 -24 -45 91 -100 78 -37 135
-87 135 -117 0 -23 -57 -35 -112 -24 -29 7 -95 15 -145 18 -96 6 -100 5 -107
-39 -1 -7 -5 -18 -9 -24 -14 -24 33 -45 159 -70 136 -28 173 -45 142 -68 -22
-16 -118 -156 -118 -172 0 -7 -8 -17 -17 -23 -15 -8 -18 -24 -18 -82 0 -69 -2
-74 -27 -88 -24 -14 -46 -12 -265 22 -131 21 -260 43 -288 48 -85 17 -320 38
-328 29 -5 -4 -5 -10 0 -13 13 -8 333 -87 352 -87 9 0 34 -9 55 -20 22 -10 80
-27 130 -35 137 -25 277 -55 310 -68 43 -16 108 -87 102 -111 -5 -21 16 -47
102 -130 28 -27 52 -58 52 -68 0 -10 10 -20 24 -24 26 -6 77 -54 57 -54 -6 0
-323 59 -704 130 -380 72 -699 129 -707 128 -16 -4 75 -23 749 -159 622 -125
691 -143 691 -176 0 -19 -90 -107 -128 -126 -15 -8 -56 -17 -92 -20 -63 -5
-273 33 -845 153 -267 56 -340 70 -358 70 -19 0 -17 -3 11 -31 23 -22 32 -41
34 -72 3 -39 5 -42 46 -54 52 -15 72 -8 72 23 0 19 5 24 25 24 15 0 40 -7 56
-16 25 -12 30 -20 25 -39 -4 -14 0 -29 8 -38 8 -8 79 -35 158 -61 129 -42 218
-73 273 -96 41 -17 217 -70 233 -70 9 0 32 -9 50 -20 18 -11 38 -18 43 -14 5
3 28 -4 50 -15 22 -12 49 -21 61 -21 11 0 36 -9 55 -21 18 -12 40 -19 47 -16
7 3 26 -3 41 -13 16 -10 50 -22 77 -25 26 -4 50 -11 54 -16 3 -5 18 -9 33 -9
25 0 71 -28 71 -43 0 -8 -62 3 -75 14 -6 4 -27 10 -47 12 -20 2 -43 8 -50 14
-12 10 -37 18 -170 57 -31 9 -74 17 -95 17 -21 1 -49 8 -62 16 -13 9 -41 15
-62 15 -22 -1 -39 3 -39 8 0 4 -12 11 -27 15 -16 3 -44 18 -65 31 -29 20 -51
26 -108 28 -56 3 -75 7 -82 20 -7 12 -20 17 -41 15 -18 -1 -45 3 -61 10 -16 6
-31 10 -33 7 -6 -5 82 -45 116 -52 14 -3 44 -14 67 -24 22 -10 65 -26 95 -35
73 -23 327 -108 419 -141 143 -51 625 -214 632 -214 4 0 8 526 8 1170 l0 1169
-36 7 c-19 3 -57 3 -82 0 -26 -4 -81 -9 -122 -12 -89 -6 -108 4 -116 61 -11
79 -14 86 -49 101 -55 22 -69 18 -82 -23z m249 -2293 c2 -5 26 -13 53 -16 28
-4 57 -12 65 -19 8 -7 34 -16 58 -20 23 -4 39 -11 36 -16 -6 -10 -52 -5 -89
10 -11 5 -49 14 -84 21 -36 6 -70 17 -75 25 -6 7 -18 15 -26 18 -8 3 2 6 22 6
20 1 38 -3 40 -9z"/>
<path d="M171 4714 c0 -11 3 -14 6 -6 3 7 2 16 -1 19 -3 4 -6 -2 -5 -13z"/>
<path d="M904 4718 c-4 -6 5 -21 21 -34 25 -19 27 -25 15 -39 -7 -8 -9 -19 -5
-23 4 -4 10 -1 12 5 3 10 10 10 24 2 11 -5 25 -7 32 -4 6 4 3 -1 -7 -9 -16
-13 -17 -19 -7 -29 10 -9 16 -7 31 13 16 20 22 22 29 11 5 -7 14 -10 20 -7 6
4 11 3 11 -3 0 -5 8 -12 19 -16 13 -4 17 -12 13 -30 -4 -22 -1 -25 27 -25 17
0 34 -6 37 -13 3 -8 11 -14 19 -14 11 0 12 4 3 14 -8 11 -7 12 6 7 9 -3 16
-12 16 -20 0 -8 7 -14 15 -14 8 0 15 -7 15 -16 0 -9 6 -14 13 -11 6 2 11 10 9
16 -3 14 8 9 53 -24 17 -13 39 -24 50 -26 11 -3 20 -11 20 -19 0 -8 11 -17 24
-18 19 -3 21 -6 10 -13 -12 -7 -12 -10 1 -23 18 -17 60 -24 78 -13 7 5 12 3
12 -7 0 -8 3 -23 6 -33 5 -15 4 -15 -5 -3 -9 13 -11 13 -11 -2 0 -10 -6 -18
-12 -19 -7 0 -3 -4 10 -9 12 -5 21 -17 21 -27 -1 -17 -2 -17 -6 0 -4 17 -23
24 -23 9 0 -7 -42 -32 -53 -32 -2 0 -4 10 -4 23 -1 12 -5 33 -8 45 -5 19 -8
22 -20 12 -8 -7 -13 -15 -10 -19 5 -8 -30 -41 -44 -41 -5 0 -14 -7 -21 -15
-11 -13 -8 -15 19 -15 19 0 30 -4 26 -10 -3 -5 2 -9 12 -8 36 3 53 -2 53 -16
0 -8 10 -16 22 -18 16 -2 25 -12 29 -33 4 -19 7 -23 8 -10 0 11 8 31 17 43
l15 22 36 -27 c31 -24 33 -28 17 -35 -12 -5 -7 -6 13 -2 25 4 34 1 43 -15 13
-24 13 -24 -28 -10 -26 9 -35 8 -48 -6 -15 -15 -15 -16 9 -10 14 4 33 2 44 -3
13 -7 28 -6 52 4 l33 14 -4 -30 c-3 -21 0 -30 10 -30 9 0 12 6 8 17 -10 24 14
34 40 16 13 -8 27 -12 32 -9 6 3 15 -1 22 -9 15 -18 34 -20 24 -2 -6 10 -4 10
7 0 18 -17 44 -16 59 2 7 8 20 15 29 14 12 0 11 -2 -4 -9 -11 -5 -15 -9 -10
-10 6 -1 -6 -7 -25 -15 -19 -7 -45 -11 -57 -8 -13 3 -29 -2 -38 -11 -9 -9 -23
-16 -32 -16 -9 0 -13 -6 -10 -14 4 -10 -5 -8 -34 6 -21 10 -39 24 -39 31 0 6
-5 4 -11 -6 -5 -9 -7 -22 -4 -27 3 -6 1 -10 -5 -10 -21 0 17 -29 46 -35 23 -5
26 -4 14 5 -13 9 -12 11 5 7 11 -2 19 -9 18 -15 -2 -7 4 -12 12 -12 17 0 20
-16 5 -25 -6 -4 -8 -11 -4 -16 9 -14 34 10 34 32 0 11 5 19 10 19 6 0 10 8 11
18 0 11 2 13 6 4 4 -10 9 -7 17 10 7 12 19 22 28 20 9 -1 18 7 21 19 4 13 12
19 24 18 10 -2 24 0 31 5 16 9 17 8 26 -21 6 -18 3 -23 -11 -23 -11 0 -24 5
-31 12 -13 13 -13 12 -16 -42 -1 -27 0 -29 12 -13 8 12 26 18 50 18 31 0 38 4
40 24 2 13 0 21 -6 17 -14 -8 -25 25 -12 38 7 7 10 6 10 -3 0 -7 5 -9 10 -6 6
3 10 1 10 -6 0 -8 4 -8 15 1 12 10 15 10 15 -1 0 -11 2 -11 10 1 8 12 10 11
10 -7 0 -12 8 -26 18 -32 15 -9 14 -10 -5 -8 -13 1 -23 4 -23 8 0 4 -9 5 -20
2 -11 -3 -20 -9 -20 -13 0 -5 -3 -15 -6 -24 -4 -11 -1 -16 11 -16 9 0 13 5 10
10 -3 6 1 10 9 10 9 0 17 -6 17 -12 1 -7 2 -29 4 -48 1 -19 3 -44 4 -56 0 -11
8 -21 16 -21 9 0 13 7 10 16 -2 9 0 23 5 31 8 12 10 12 10 1 0 -9 8 -5 21 10
l22 24 -7 -27 c-4 -17 -2 -28 4 -28 5 0 10 15 10 33 1 29 2 30 14 14 12 -16
14 -14 18 23 2 22 -1 40 -6 40 -5 0 -1 7 10 15 10 8 32 15 48 15 16 0 26 3 23
6 -3 4 5 16 19 27 18 14 28 17 36 9 8 -8 6 -13 -6 -18 -15 -6 -12 -9 14 -21
23 -9 36 -10 45 -3 10 8 14 4 19 -16 4 -14 5 -28 3 -30 -6 -7 -37 7 -37 16 0
5 -9 6 -20 3 -20 -5 -20 -7 -4 -24 15 -17 15 -19 1 -19 -25 0 -32 -22 -12 -37
18 -13 18 -13 -1 -13 -18 -1 -18 -1 -1 -11 9 -5 17 -15 17 -20 0 -6 -5 -7 -11
-4 -5 4 -23 2 -39 -5 -21 -9 -34 -9 -49 0 -18 9 -21 8 -21 -10 0 -15 7 -20 28
-21 l27 -1 -25 -8 -25 -8 25 -3 c14 -1 31 -2 37 -2 7 1 13 -8 13 -20 0 -11 3
-17 7 -14 3 4 6 20 5 37 0 16 3 30 8 30 5 0 7 -6 4 -14 -3 -7 1 -16 9 -19 11
-4 13 0 10 14 -4 14 0 19 15 19 11 0 22 6 25 13 4 10 7 10 18 0 7 -7 27 -13
44 -12 l30 1 -32 10 c-37 12 -43 32 -13 48 11 6 20 16 20 23 0 8 -3 8 -9 -2
-7 -10 -13 -11 -27 -2 -17 9 -17 10 -1 11 9 0 17 5 17 10 0 6 -4 10 -10 10 -5
0 -10 9 -10 20 0 11 4 20 10 20 5 0 6 -8 3 -17 -5 -12 -2 -15 10 -10 9 3 19 2
22 -3 3 -4 -1 -11 -7 -13 -7 -3 -3 -6 10 -6 13 -1 20 -5 17 -11 -3 -5 -2 -10
4 -10 6 0 13 11 17 25 7 29 13 31 40 9 18 -14 18 -15 -6 -9 -24 6 -24 5 -6 -9
20 -16 20 -16 -1 -16 -18 0 -20 -5 -18 -47 2 -27 4 -52 4 -58 1 -5 10 1 20 14
15 20 19 21 24 7 4 -9 12 -16 19 -16 10 0 10 2 -1 9 -10 6 -3 12 25 21 22 7
43 19 47 26 4 8 17 14 27 14 10 0 22 5 25 10 3 6 16 8 29 4 14 -3 27 1 35 10
9 11 10 16 2 16 -26 0 -9 37 26 55 l36 20 -64 15 c-35 9 -84 26 -109 39 -25
13 -54 25 -65 26 -33 4 -35 5 -35 16 0 13 63 1 68 -12 2 -5 13 -9 25 -9 20 0
19 2 -8 20 -23 15 -43 19 -95 16 -43 -2 -58 0 -45 6 14 6 9 7 -16 3 -29 -4
-38 -2 -43 12 -6 14 -5 16 5 6 17 -17 29 -16 29 0 0 12 -68 47 -91 47 -6 0
-23 8 -37 19 -15 10 -38 22 -51 26 -27 8 -62 36 -56 44 5 8 -152 8 -160 0 -10
-10 -93 2 -195 28 -52 13 -108 26 -125 28 -16 2 -31 9 -33 15 -2 5 -14 10 -27
10 -12 0 -25 6 -28 14 -3 7 -22 16 -41 20 -20 4 -36 11 -36 16 0 6 3 9 8 9 19
-3 26 2 13 10 -10 7 -19 5 -26 -6 -14 -19 -51 -12 -80 15 -11 10 -27 17 -35
15 -9 -3 -7 1 3 7 18 11 17 14 -9 41 -26 27 -45 35 -126 53 -20 5 -28 13 -28
29 -1 19 -2 20 -13 6 -17 -22 -73 -19 -69 4 2 10 -3 17 -13 17 -8 0 -15 4 -15
9 0 5 -14 18 -32 29 -24 15 -35 18 -48 10 -13 -8 -23 -7 -41 6 -24 18 -24 18
-1 11 43 -12 21 5 -44 36 -54 26 -68 29 -75 18 -6 -10 -9 -11 -9 -1 0 6 -7 12
-15 12 -8 0 -15 5 -15 10 0 14 13 13 29 -2 10 -11 11 -10 6 5 -8 19 -50 23
-61 5z m275 -132 c23 -24 23 -25 2 -19 -11 3 -18 9 -15 14 3 5 0 9 -5 9 -6 0
-11 5 -11 10 0 15 4 13 29 -14z m481 -266 c0 -5 -7 -10 -15 -10 -8 0 -15 5
-15 10 0 6 7 10 15 10 8 0 15 -4 15 -10z m-91 -9 c9 -6 10 -11 2 -15 -20 -12
-12 -28 10 -21 15 5 19 4 15 -4 -16 -26 -43 -10 -51 29 -4 22 2 25 24 11z
m-144 -81 c3 -5 -1 -10 -9 -10 -8 0 -18 5 -21 10 -3 6 1 10 9 10 8 0 18 -4 21
-10z m391 -139 c-4 -6 -14 -7 -23 -4 -15 6 -14 7 3 13 22 9 29 6 20 -9z m21
-13 c-3 -8 -6 -5 -6 6 -1 11 2 17 5 13 3 -3 4 -12 1 -19z m258 12 c3 -5 -1
-10 -10 -10 -9 0 -13 5 -10 10 3 6 8 10 10 10 2 0 7 -4 10 -10z m-202 -25 c7
-16 -8 -29 -23 -20 -10 6 -2 35 10 35 4 0 10 -7 13 -15z m397 -10 c0 -8 0 -18
0 -22 0 -12 -46 -22 -60 -13 -8 5 -3 10 14 14 14 3 25 10 25 14 -3 15 1 22 11
22 6 0 10 -7 10 -15z m80 -15 c0 -12 -8 -12 -35 0 -18 8 -17 9 8 9 15 1 27 -3
27 -9z m-247 -50 c-7 -8 -22 24 -16 34 4 5 10 1 13 -10 4 -10 6 -21 3 -24z
m412 12 c-3 -3 -11 0 -18 7 -9 10 -8 11 6 5 10 -3 15 -9 12 -12z m-699 -12 c0
-11 -6 -20 -13 -20 -17 0 -17 27 0 33 6 3 12 6 12 6 1 1 1 -8 1 -19z m826 -11
c16 -9 18 -13 7 -20 -8 -4 -16 -4 -20 2 -7 11 -47 -6 -61 -26 -4 -5 -10 -7
-13 -3 -4 3 3 16 16 29 14 14 17 20 7 16 -9 -3 -24 0 -34 7 -16 12 -12 13 29
10 26 -2 57 -9 69 -15z m-107 -39 c3 -5 2 -10 -4 -10 -5 0 -13 5 -16 10 -3 6
-2 10 4 10 5 0 13 -4 16 -10z m50 -40 c-3 -5 -10 -10 -16 -10 -5 0 -9 5 -9 10
0 6 7 10 16 10 8 0 12 -4 9 -10z m92 4 c-3 -3 -12 -4 -19 -1 -8 3 -5 6 6 6 11
1 17 -2 13 -5z m-47 -14 c0 -5 -4 -10 -10 -10 -5 0 -10 5 -10 10 0 6 5 10 10
10 6 0 10 -4 10 -10z m-86 -25 c-4 -8 -11 -12 -16 -9 -6 4 -5 10 3 15 19 12
19 11 13 -6z m-164 -4 c0 -6 -4 -13 -10 -16 -5 -3 -10 1 -10 9 0 9 5 16 10 16
6 0 10 -4 10 -9z"/>
<path d="M830 4705 c0 -9 5 -15 11 -13 6 2 11 8 11 13 0 5 -5 11 -11 13 -6 2
-11 -4 -11 -13z"/>
<path d="M5190 4703 c0 -4 16 -19 35 -32 36 -25 42 -35 25 -46 -8 -5 -7 -11 0
-20 14 -17 3 -38 -16 -31 -7 3 -16 1 -20 -5 -3 -6 -10 -6 -17 -1 -12 10 -59
24 -90 27 -10 1 -22 6 -28 12 -12 12 -49 6 -49 -8 0 -5 9 -17 20 -26 11 -10
20 -23 20 -30 0 -19 15 -23 47 -14 l31 9 -3 -44 c-3 -36 0 -44 13 -44 22 0 47
-37 29 -43 -7 -2 -9 -7 -6 -11 17 -19 66 35 52 57 -4 7 -8 29 -9 50 -1 35 1
37 29 37 21 0 28 4 24 15 -4 8 -2 17 3 20 6 4 10 -4 10 -17 0 -24 34 -53 50
-43 16 10 11 23 -11 30 -14 5 -18 12 -14 23 4 10 8 22 8 29 0 15 25 25 40 16
7 -4 8 0 4 11 -4 10 -7 23 -7 29 0 18 -69 45 -113 46 -21 0 -42 3 -47 6 -6 4
-10 3 -10 -2z m100 -88 c7 -9 8 -15 2 -15 -5 0 -12 7 -16 15 -3 8 -4 15 -2 15
2 0 9 -7 16 -15z m-187 -39 c13 -10 15 -16 7 -21 -7 -4 -22 2 -33 14 -25 24
-4 30 26 7z"/>
<path d="M4685 4665 c8 -36 46 -127 51 -122 5 5 -32 112 -46 134 -9 15 -10 13
-5 -12z"/>
<path d="M830 4670 c-18 -12 -2 -12 25 0 13 6 15 9 5 9 -8 0 -22 -4 -30 -9z"/>
<path d="M4600 4638 l-45 -30 -135 6 c-317 14 -916 35 -1049 37 -129 1 -146
-1 -158 -17 -7 -10 -13 -24 -13 -31 0 -7 -18 -66 -39 -132 -60 -181 -66 -165
64 -171 61 -3 126 -2 145 2 19 4 51 3 70 -1 19 -5 150 -9 290 -9 140 -1 382
-3 538 -7 300 -5 334 -11 365 -56 l16 -22 13 29 c9 20 13 85 13 216 0 226 -4
235 -75 186z"/>
<path d="M780 4640 c0 -5 5 -10 10 -10 6 0 10 5 10 10 0 6 -4 10 -10 10 -5 0
-10 -4 -10 -10z"/>
<path d="M817 4624 c-3 -4 0 -16 8 -27 11 -15 12 -24 3 -34 -8 -10 -7 -13 4
-13 8 0 20 11 26 24 9 20 7 27 -7 40 -19 18 -25 19 -34 10z"/>
<path d="M5005 4620 c3 -5 8 -10 11 -10 2 0 4 5 4 10 0 6 -5 10 -11 10 -5 0
-7 -4 -4 -10z"/>
<path d="M5562 4603 c-6 -10 -11 -72 -11 -137 -1 -66 -6 -125 -11 -130 -5 -7
-3 -19 5 -30 8 -10 12 -30 9 -45 -5 -29 14 -65 23 -44 2 7 21 17 42 23 52 14
61 39 61 173 0 129 -16 179 -60 185 -14 2 -30 8 -37 14 -8 6 -15 4 -21 -9z"/>
<path d="M316 4595 c4 -8 8 -15 10 -15 2 0 4 7 4 15 0 8 -4 15 -10 15 -5 0 -7
-7 -4 -15z"/>
<path d="M460 4590 c0 -5 5 -10 11 -10 5 0 7 5 4 10 -3 6 -8 10 -11 10 -2 0
-4 -4 -4 -10z"/>
<path d="M1390 4585 c14 -16 40 -20 40 -6 0 9 -24 21 -42 21 -6 0 -6 -6 2 -15z"/>
<path d="M871 4568 c-9 -24 4 -41 24 -32 5 3 1 -1 -9 -10 -18 -14 -18 -16 -2
-22 22 -8 26 -3 29 32 2 23 -2 28 -15 26 -12 -2 -16 2 -12 13 3 8 3 15 0 15
-4 0 -10 -10 -15 -22z"/>
<path d="M575 4570 c3 -5 8 -10 11 -10 2 0 4 5 4 10 0 6 -5 10 -11 10 -5 0 -7
-4 -4 -10z"/>
<path d="M778 4573 c7 -3 16 -2 19 1 4 3 -2 6 -13 5 -11 0 -14 -3 -6 -6z"/>
<path d="M951 4561 c-7 -5 -10 -14 -6 -21 6 -9 9 -9 16 1 6 10 9 11 9 2 0 -7
10 -13 22 -13 20 0 21 1 3 20 -20 22 -24 23 -44 11z"/>
<path d="M1075 4560 c3 -5 8 -10 11 -10 2 0 4 5 4 10 0 6 -5 10 -11 10 -5 0
-7 -4 -4 -10z"/>
<path d="M1265 4560 c3 -5 10 -10 16 -10 5 0 9 5 9 10 0 6 -7 10 -16 10 -8 0
-12 -4 -9 -10z"/>
<path d="M1020 4540 c0 -5 9 -10 21 -10 11 0 17 5 14 10 -3 6 -13 10 -21 10
-8 0 -14 -4 -14 -10z"/>
<path d="M740 4510 c-9 -6 -10 -10 -3 -10 6 0 15 5 18 10 8 12 4 12 -15 0z"/>
<path d="M1132 4505 c-10 -12 -10 -15 2 -15 7 0 16 7 20 15 7 19 -5 19 -22 0z"/>
<path d="M5252 4508 c6 -18 28 -21 28 -4 0 9 -7 16 -16 16 -9 0 -14 -5 -12
-12z"/>
<path d="M5331 4476 c9 -9 33 -19 55 -21 36 -5 38 -4 20 10 -11 8 -28 15 -37
15 -10 0 -26 3 -36 6 -17 6 -17 5 -2 -10z"/>
<path d="M515 4471 c-3 -5 -1 -12 5 -16 5 -3 10 1 10 9 0 18 -6 21 -15 7z"/>
<path d="M1221 4463 c-1 -19 4 -23 27 -22 22 1 23 2 5 6 -12 2 -24 12 -26 21
-3 12 -5 10 -6 -5z"/>
<path d="M407 4463 c-4 -3 -7 -11 -7 -17 0 -6 5 -5 12 2 6 6 9 14 7 17 -3 3
-9 2 -12 -2z"/>
<path d="M2461 4444 c0 -11 3 -14 6 -6 3 7 2 16 -1 19 -3 4 -6 -2 -5 -13z"/>
<path d="M568 4387 c-3 -19 -2 -25 4 -19 6 6 8 18 6 28 -3 14 -5 12 -10 -9z"/>
<path d="M1260 4391 c0 -5 7 -11 14 -14 10 -4 13 -1 9 9 -6 15 -23 19 -23 5z"/>
<path d="M1321 4388 c-1 -9 -4 -24 -8 -34 -4 -11 -3 -15 5 -10 14 9 42 -32 35
-53 -4 -13 -3 -13 7 1 12 19 -2 58 -21 58 -6 0 -8 3 -6 8 3 4 1 16 -4 27 -6
16 -8 17 -8 3z"/>
<path d="M5246 4361 c-3 -5 1 -15 10 -22 13 -10 17 -10 24 1 6 9 4 17 -3 22
-16 10 -25 10 -31 -1z"/>
<path d="M2425 4349 c-10 -15 1 -23 20 -15 9 3 13 10 10 16 -8 13 -22 13 -30
-1z"/>
<path d="M8386 4315 c-18 -18 -21 -142 -4 -162 6 -7 28 -13 49 -13 37 0 39 2
68 64 17 35 31 69 31 74 0 6 -12 20 -26 31 -32 25 -96 28 -118 6z"/>
<path d="M700 4280 c0 -5 5 -10 10 -10 6 0 10 5 10 10 0 6 -4 10 -10 10 -5 0
-10 -4 -10 -10z"/>
<path d="M1208 4283 c7 -3 16 -2 19 1 4 3 -2 6 -13 5 -11 0 -14 -3 -6 -6z"/>
<path d="M5210 4265 c7 -8 10 -24 7 -35 -3 -13 1 -24 13 -30 25 -13 41 -13 38
1 -2 6 10 13 26 16 55 8 63 19 25 36 -19 8 -54 18 -78 21 -39 6 -43 5 -31 -9z"/>
<path d="M1280 4242 c0 -5 -11 -21 -25 -36 -31 -34 -32 -46 -2 -46 27 0 55 45
34 54 -9 3 -9 7 2 14 9 7 10 12 2 16 -6 4 -11 3 -11 -2z"/>
<path d="M8671 4241 c-18 -12 -32 -108 -17 -120 6 -5 43 -11 81 -12 l70 -4 -2
39 c-3 41 -14 54 -75 86 -43 23 -39 22 -57 11z"/>
<path d="M1180 4220 c0 -5 5 -10 10 -10 6 0 10 5 10 10 0 6 -4 10 -10 10 -5 0
-10 -4 -10 -10z"/>
<path d="M5180 4209 c0 -5 5 -7 10 -4 6 3 10 8 10 11 0 2 -4 4 -10 4 -5 0 -10
-5 -10 -11z"/>
<path d="M1305 4190 c-8 -13 5 -13 25 0 13 8 13 10 -2 10 -9 0 -20 -4 -23 -10z"/>
<path d="M795 4160 c-3 -5 1 -10 10 -10 9 0 13 5 10 10 -3 6 -8 10 -10 10 -2
0 -7 -4 -10 -10z"/>
<path d="M1530 4152 c0 -12 19 -26 26 -19 2 2 -2 10 -11 17 -9 8 -15 8 -15 2z"/>
<path d="M5185 4151 c-16 -3 -25 -9 -20 -12 6 -4 26 -1 45 7 37 13 25 16 -25
5z"/>
<path d="M5314 4108 c-6 -20 -7 -20 -19 -5 -11 15 -13 16 -19 2 -3 -9 -18 -15
-36 -15 -16 0 -30 -4 -30 -10 0 -5 -13 -10 -29 -10 -18 0 -35 -8 -44 -20 -8
-11 -17 -17 -20 -14 -8 8 -97 -65 -97 -80 0 -6 -9 -17 -20 -24 -11 -7 -20 -23
-20 -36 0 -14 -4 -28 -10 -31 -5 -3 -10 -19 -10 -35 0 -16 -4 -31 -9 -34 -5
-3 -9 -47 -8 -97 0 -63 -4 -93 -13 -99 -7 -4 -44 -11 -82 -14 -38 -4 -88 -13
-111 -20 -23 -7 -58 -11 -77 -10 -19 1 -71 -4 -115 -12 -44 -7 -92 -14 -107
-14 l-28 0 7 -61 c5 -52 3 -64 -16 -90 l-22 -30 106 -111 c58 -62 113 -124
122 -139 22 -37 50 -40 177 -18 63 10 114 15 120 10 6 -5 54 -1 111 10 134 24
139 24 125 -2 -19 -34 -29 -120 -18 -151 11 -31 43 -44 79 -33 12 4 19 3 16
-2 -3 -5 -31 -15 -61 -22 -48 -11 -54 -15 -51 -33 5 -23 22 -38 43 -38 7 0 11
-4 8 -9 -3 -5 11 -11 33 -13 l38 -3 -5 42 c-2 24 -1 43 4 43 5 0 15 9 22 20
10 17 7 24 -25 56 -27 28 -36 45 -36 68 1 17 2 53 2 80 2 54 16 80 59 106 22
13 29 25 29 49 0 19 7 37 19 46 16 13 17 16 4 24 -13 9 -12 12 5 26 14 11 16
18 8 21 -8 4 -9 11 -4 22 5 9 13 30 17 47 5 16 18 34 29 40 49 25 92 85 50 69
-7 -3 -15 2 -19 11 -3 9 0 18 8 21 16 6 29 44 16 44 -5 0 -12 -5 -16 -11 -15
-24 -22 15 -8 43 12 23 12 29 2 33 -14 6 -15 28 -3 83 8 34 37 62 65 62 9 0
27 12 41 27 21 23 22 25 4 18 -11 -4 -30 -10 -42 -12 -12 -3 -37 -19 -56 -37
-34 -31 -37 -40 -63 -173 -2 -13 -10 -23 -17 -23 -18 0 -20 80 -3 121 l15 36
-29 0 c-22 0 -30 -6 -35 -24 -3 -12 -10 -23 -15 -23 -5 0 -6 9 -1 22 10 28 2
68 -14 68 -10 0 -35 -40 -35 -55 0 -3 14 -18 31 -35 18 -16 27 -30 20 -30 -7
0 -10 -4 -6 -9 3 -5 -4 -12 -15 -16 -11 -3 -20 -10 -20 -15 0 -5 7 -7 15 -4 8
4 15 1 15 -5 0 -6 -4 -11 -10 -11 -18 0 -10 -18 10 -23 16 -4 20 -14 20 -46 0
-23 -4 -41 -9 -41 -5 0 -6 -15 -1 -34 10 -46 2 -84 -21 -96 -12 -7 -16 -16
-12 -28 6 -16 5 -16 -13 -1 -10 9 -28 19 -38 23 -10 3 -16 9 -13 12 3 3 14 1
26 -5 14 -8 22 -8 26 0 10 14 -44 69 -67 69 -16 0 -15 -4 9 -26 19 -17 22 -24
10 -20 -10 3 -16 2 -12 -3 3 -5 -1 -11 -7 -14 -9 -3 -7 -10 7 -21 11 -8 15
-16 8 -16 -6 0 -14 4 -18 9 -3 6 -26 13 -50 17 -25 3 -45 10 -45 15 0 5 4 9 8
9 5 0 9 7 9 15 0 8 -5 15 -11 15 -6 0 -4 4 4 10 12 7 11 12 -9 29 -12 11 -20
24 -17 30 4 5 -3 7 -16 3 -15 -3 -19 -2 -14 7 4 6 -2 26 -13 45 -26 41 -26 51
-2 84 10 15 26 52 34 83 34 115 100 202 176 227 47 17 132 15 157 -3 12 -8 24
-12 27 -9 3 3 20 -2 37 -11 37 -19 134 -12 127 9 -2 6 -8 11 -13 11 -5 0 -19
10 -31 23 -13 12 -31 22 -41 22 -9 0 -23 9 -30 21 -8 12 -21 19 -35 17 -25 -3
-74 27 -59 36 6 3 18 3 29 -1 23 -8 15 1 -14 16 -19 9 -23 8 -29 -11z m-514
-587 c94 -27 153 -52 168 -69 18 -23 15 -52 -5 -53 -17 -1 -17 -2 -1 -6 23 -6
33 -45 18 -72 -9 -17 -8 -21 4 -21 9 0 21 10 27 23 16 30 25 35 64 31 19 -1
36 3 38 9 3 8 -9 13 -30 15 -37 2 -53 9 -53 21 0 10 72 1 88 -12 7 -6 11 -16
8 -23 -3 -7 8 -18 25 -26 28 -13 39 -28 19 -28 -5 0 -10 -8 -10 -18 0 -23 -40
-43 -69 -35 -15 4 -21 1 -21 -11 0 -9 -6 -16 -12 -15 -20 3 -70 -20 -88 -41
-20 -23 -53 -26 -69 -6 -10 11 -7 17 11 30 12 9 32 16 44 16 24 0 51 26 39 38
-4 4 -10 2 -12 -5 -2 -6 -28 -20 -56 -29 -29 -9 -57 -24 -64 -33 -7 -9 -12
-11 -13 -4 0 6 21 30 48 53 26 23 39 40 30 37 -9 -3 -18 -2 -20 2 -2 4 -55 31
-118 60 -189 85 -231 115 -202 143 18 18 101 15 141 -5 38 -19 51 -21 51 -8 0
9 -58 35 -72 32 -5 0 -8 6 -8 14 0 20 22 19 100 -4z m400 -155 c0 -11 -19 -15
-25 -6 -3 5 1 10 9 10 9 0 16 -2 16 -4z"/>
<path d="M5173 4113 c9 -2 23 -2 30 0 6 3 -1 5 -18 5 -16 0 -22 -2 -12 -5z"/>
<path d="M740 4083 c0 -5 5 -15 10 -23 8 -12 10 -11 10 8 0 12 -4 22 -10 22
-5 0 -10 -3 -10 -7z"/>
<path d="M4930 4084 c0 -29 24 -91 36 -91 8 0 14 4 14 8 0 4 3 14 6 23 4 12 0
16 -15 16 -16 0 -21 6 -21 25 0 14 -4 25 -10 25 -5 0 -10 -3 -10 -6z"/>
<path d="M1080 4049 c0 -5 5 -7 10 -4 6 3 10 8 10 11 0 2 -4 4 -10 4 -5 0 -10
-5 -10 -11z"/>
<path d="M1470 4024 c0 -8 5 -12 10 -9 6 4 8 11 5 16 -9 14 -15 11 -15 -7z"/>
<path d="M1760 4031 c0 -6 4 -13 10 -16 6 -3 7 1 4 9 -7 18 -14 21 -14 7z"/>
<path d="M965 3990 c3 -5 11 -10 16 -10 6 0 7 5 4 10 -3 6 -11 10 -16 10 -6 0
-7 -4 -4 -10z"/>
<path d="M1610 3990 c0 -5 5 -10 10 -10 6 0 10 5 10 10 0 6 -4 10 -10 10 -5 0
-10 -4 -10 -10z"/>
<path d="M1146 3961 c-3 -5 1 -14 8 -20 10 -8 16 -9 21 -1 3 5 -2 10 -12 11
-16 0 -16 1 2 9 16 7 17 9 3 9 -9 1 -19 -3 -22 -8z"/>
<path d="M3600 3935 c13 -14 26 -25 28 -25 3 0 -5 11 -18 25 -13 14 -26 25
-28 25 -3 0 5 -11 18 -25z"/>
<path d="M1640 3940 c0 -5 5 -10 10 -10 6 0 10 5 10 10 0 6 -4 10 -10 10 -5 0
-10 -4 -10 -10z"/>
<path d="M1275 3930 c-3 -5 1 -10 9 -10 9 0 16 5 16 10 0 6 -4 10 -9 10 -6 0
-13 -4 -16 -10z"/>
<path d="M1396 3913 c-6 -14 -5 -15 5 -6 7 7 10 15 7 18 -3 3 -9 -2 -12 -12z"/>
<path d="M2263 3923 c-13 -2 -23 -7 -23 -9 0 -12 30 -34 46 -34 13 0 15 3 7
11 -6 6 -9 18 -6 25 3 8 4 13 2 13 -2 -1 -14 -4 -26 -6z"/>
<path d="M3673 3874 c3 -4 43 -24 89 -45 118 -54 215 -138 266 -231 22 -40 60
-101 85 -135 79 -106 88 -132 84 -226 -2 -45 -9 -93 -15 -107 -6 -14 -11 -21
-11 -17 -1 5 -8 1 -17 -7 -8 -9 -19 -16 -24 -16 -10 0 -40 57 -40 75 0 25 -45
64 -78 67 -18 1 -32 8 -32 15 0 8 -22 35 -49 61 -26 26 -62 67 -78 92 -49 72
-154 162 -171 146 -3 -3 0 -6 7 -6 39 0 202 -218 241 -322 20 -53 20 -60 6
-80 -9 -12 -16 -19 -16 -15 0 4 -13 1 -30 -8 -42 -22 -61 -19 -106 15 -21 16
-44 30 -51 30 -6 0 -31 16 -55 35 -23 19 -48 39 -54 44 -6 5 -20 12 -32 15
-12 4 -22 12 -22 17 0 5 -6 9 -12 9 -7 0 -58 30 -113 65 -83 54 -195 115 -211
115 -2 0 -4 -5 -4 -10 0 -6 25 -26 56 -46 42 -27 53 -38 43 -45 -10 -6 -6 -8
12 -7 21 2 60 -18 104 -55 20 -16 122 -77 223 -132 56 -31 108 -62 115 -69 32
-32 67 -47 89 -40 30 10 47 7 83 -19 17 -12 60 -37 96 -56 l67 -34 107 18 108
19 -39 12 c-21 6 -36 12 -32 13 14 2 203 -49 298 -81 52 -17 101 -33 108 -34
13 -4 17 -50 5 -57 -5 -2 -2 -2 5 0 8 1 23 -4 35 -12 12 -8 24 -15 28 -15 3 0
6 43 8 96 1 53 4 101 7 106 8 13 -16 38 -37 38 -14 0 -19 -7 -19 -27 0 -16 -4
-34 -9 -42 -5 -8 -3 -23 5 -39 7 -14 10 -30 7 -36 -4 -5 -11 0 -16 12 -11 24
-22 28 -32 12 -3 -5 -15 -10 -26 -10 -20 0 -137 68 -175 102 -11 10 -67 32
-125 49 -57 16 -110 32 -116 34 -22 7 17 76 39 70 10 -3 28 -8 40 -11 17 -5
12 5 -25 46 -52 57 -64 107 -29 117 17 4 16 7 -9 34 -20 22 -26 37 -24 59 2
16 -2 36 -9 43 -8 7 -34 45 -58 83 -75 115 -163 190 -319 267 -121 61 -163 78
-146 61z"/>
<path d="M7041 3869 c-46 -9 -70 -24 -58 -35 4 -4 76 -11 161 -16 143 -9 156
-8 185 10 l31 19 -75 16 c-81 18 -172 20 -244 6z"/>
<path d="M1675 3860 c3 -5 8 -10 11 -10 2 0 4 5 4 10 0 6 -5 10 -11 10 -5 0
-7 -4 -4 -10z"/>
<path d="M214 3846 c-15 -11 -15 -13 -1 -19 18 -7 57 2 57 13 0 14 -39 18 -56
6z"/>
<path d="M7410 3838 c0 -7 7 -21 14 -31 12 -16 34 -19 168 -23 84 -3 180 -11
213 -19 55 -13 139 -15 150 -3 8 7 -86 26 -240 48 -77 11 -158 25 -180 30 -58
14 -125 13 -125 -2z"/>
<path d="M5330 3824 c0 -8 5 -12 10 -9 6 3 10 10 10 16 0 5 -4 9 -10 9 -5 0
-10 -7 -10 -16z"/>
<path d="M2147 3796 c-3 -8 1 -17 9 -20 8 -3 14 1 14 9 0 20 -17 28 -23 11z"/>
<path d="M2194 3788 c3 -13 6 -26 6 -30 0 -5 8 -8 17 -8 13 0 14 3 5 12 -7 7
-12 20 -12 30 0 10 -5 18 -11 18 -7 0 -9 -9 -5 -22z"/>
<path d="M2595 3790 c3 -6 -4 -14 -17 -19 -13 -6 -18 -10 -11 -10 6 -1 18 -4
26 -7 10 -3 16 3 19 20 4 18 1 26 -9 26 -8 0 -11 -5 -8 -10z"/>
<path d="M1970 3774 c0 -3 7 -12 15 -20 16 -17 18 -14 9 10 -6 15 -24 23 -24
10z"/>
<path d="M2430 3762 c0 -6 4 -14 10 -17 6 -4 5 -13 -2 -25 -7 -11 -9 -23 -5
-27 5 -4 12 -1 17 7 7 11 10 7 10 -15 l0 -30 15 29 c8 15 15 36 14 45 0 10 -2
11 -6 4 -6 -17 -23 -16 -23 1 0 7 -7 19 -15 26 -9 8 -15 9 -15 2z"/>
<path d="M5400 3759 c0 -5 5 -7 10 -4 6 3 10 8 10 11 0 2 -4 4 -10 4 -5 0 -10
-5 -10 -11z"/>
<path d="M2080 3733 c0 -12 5 -25 10 -28 13 -8 13 15 0 35 -8 12 -10 11 -10
-7z"/>
<path d="M2110 3741 c0 -6 4 -12 9 -15 5 -3 7 -14 4 -24 -2 -10 3 -24 11 -31
13 -11 16 -11 16 2 0 9 -5 19 -10 22 -6 4 -8 10 -5 15 7 11 -5 40 -16 40 -5 0
-9 -4 -9 -9z"/>
<path d="M1838 3718 c5 -19 23 -20 29 -1 2 6 -5 13 -15 15 -15 4 -18 1 -14
-14z"/>
<path d="M2223 3708 c0 -13 1 -17 4 -10 5 14 33 17 33 3 0 -5 -3 -11 -7 -14
-5 -2 -2 -2 6 0 7 2 19 -1 25 -6 7 -6 18 -4 30 4 17 13 15 15 -24 25 -23 6
-47 13 -53 16 -8 3 -13 -5 -14 -18z"/>
<path d="M3423 3675 c37 -32 223 -122 233 -112 3 3 -29 21 -71 41 -42 20 -101
52 -131 71 -68 44 -80 44 -31 0z"/>
<path d="M1871 3674 c0 -11 3 -14 6 -6 3 7 2 16 -1 19 -3 4 -6 -2 -5 -13z"/>
<path d="M2165 3680 c-10 -17 7 -38 36 -42 33 -5 37 5 13 30 -19 19 -42 24
-49 12z"/>
<path d="M6308 3683 c6 -2 18 -2 25 0 6 3 1 5 -13 5 -14 0 -19 -2 -12 -5z"/>
<path d="M1988 3647 c-2 -13 1 -29 9 -35 10 -10 13 -10 13 2 0 10 6 13 15 10
20 -8 19 -2 -4 24 -23 28 -28 27 -33 -1z"/>
<path d="M2051 3650 c0 -8 4 -22 9 -30 12 -18 12 -2 0 25 -6 13 -9 15 -9 5z"/>
<path d="M7421 3651 c-26 -7 -50 -36 -38 -47 3 -4 32 -2 64 4 32 6 76 14 98
17 27 5 35 9 25 15 -22 11 -121 19 -149 11z"/>
<path d="M5681 3594 c-12 -19 -21 -37 -21 -40 0 -2 -11 -21 -25 -42 -13 -20
-30 -53 -36 -72 -7 -19 -20 -47 -30 -61 -18 -25 -42 -83 -84 -196 -21 -58
-122 -209 -165 -248 -30 -27 -24 -36 18 -29 33 5 41 2 72 -31 l35 -37 -22 -15
c-26 -17 -31 -35 -8 -27 19 8 65 -22 65 -41 0 -26 18 -16 29 15 6 19 6 28 1
25 -22 -14 -21 27 0 50 30 32 19 44 -12 15 l-23 -21 -41 45 c-22 25 -46 46
-52 46 -7 0 -12 5 -12 10 0 16 29 70 38 70 11 0 76 116 97 173 10 26 22 47 27
47 5 0 7 4 3 10 -3 5 4 26 15 47 11 21 20 42 20 47 0 5 12 24 26 43 14 19 30
50 35 69 6 19 14 34 19 34 6 0 10 11 10 25 0 14 3 25 8 25 4 0 16 19 27 43 11
23 21 45 23 50 2 4 -1 7 -6 7 -6 0 -19 -16 -31 -36z"/>
<path d="M2210 3581 c0 -6 5 -13 10 -16 6 -3 10 1 10 9 0 9 -4 16 -10 16 -5 0
-10 -4 -10 -9z"/>
<path d="M2177 3552 c-14 -3 -16 -7 -6 -18 12 -15 35 -19 42 -6 8 12 -16 28
-36 24z"/>
<path d="M6975 3552 c31 -14 103 -25 84 -13 -9 6 -36 13 -60 16 -30 4 -38 3
-24 -3z"/>
<path d="M7946 3538 c-14 -46 -14 -59 1 -54 8 3 21 6 28 6 7 0 15 14 17 30 4
26 1 30 -19 30 -13 0 -25 -6 -27 -12z"/>
<path d="M8090 3511 c0 -18 6 -31 16 -35 21 -8 22 -7 30 32 6 29 4 32 -20 32
-22 0 -26 -4 -26 -29z"/>
<path d="M6025 3468 c4 -29 9 -73 11 -98 1 -25 6 -44 11 -43 89 16 232 47 247
53 21 9 21 9 -1 9 -12 1 -35 6 -50 12 -78 32 -115 51 -110 56 11 11 171 -31
190 -50 18 -18 24 -18 98 -7 44 7 82 16 85 21 3 5 -3 9 -12 9 -10 0 -45 6 -78
14 -34 8 -126 24 -206 36 -80 12 -156 26 -169 31 -24 10 -24 10 -16 -43z"/>
<path d="M4235 3420 c3 -5 8 -10 11 -10 2 0 4 5 4 10 0 6 -5 10 -11 10 -5 0
-7 -4 -4 -10z"/>
<path d="M7940 3365 c-11 -13 -8 -15 23 -15 19 0 50 -2 68 -5 l34 -5 -35 13
c-67 27 -77 28 -90 12z"/>
<path d="M4275 3350 c3 -5 8 -10 11 -10 2 0 4 5 4 10 0 6 -5 10 -11 10 -5 0
-7 -4 -4 -10z"/>
<path d="M7888 3343 c7 -3 16 -2 19 1 4 3 -2 6 -13 5 -11 0 -14 -3 -6 -6z"/>
<path d="M5836 3292 c5 -4 25 -21 44 -37 l35 -30 -34 38 c-19 20 -39 37 -45
37 -6 0 -6 -3 0 -8z"/>
<path d="M7548 3253 c7 -3 16 -2 19 1 4 3 -2 6 -13 5 -11 0 -14 -3 -6 -6z"/>
<path d="M7508 3243 c7 -3 16 -2 19 1 4 3 -2 6 -13 5 -11 0 -14 -3 -6 -6z"/>
<path d="M7130 3155 c-184 -46 -582 -145 -885 -219 -302 -75 -557 -140 -565
-146 -31 -20 -86 -48 -110 -54 -14 -4 -4 5 22 20 27 15 46 30 43 32 -3 3 0 11
6 19 9 10 8 13 -4 13 -9 0 -19 -5 -22 -11 -4 -6 -13 -8 -21 -5 -8 3 -13 2 -11
-2 3 -11 -49 -72 -62 -72 -12 0 -83 -41 -79 -46 2 -2 170 42 373 97 597 160
1146 309 1200 325 28 7 144 39 260 70 115 30 212 57 214 60 11 11 -46 -2 -359
-81z"/>
<path d="M5786 3201 c-19 -21 -19 -21 0 -21 11 0 26 -6 33 -12 11 -11 12 -9 4
7 -6 11 -12 26 -14 33 -3 10 -10 8 -23 -7z"/>
<path d="M5740 3139 c0 -5 5 -7 10 -4 6 3 10 8 10 11 0 2 -4 4 -10 4 -5 0 -10
-5 -10 -11z"/>
<path d="M7940 3071 c-104 -34 -292 -94 -635 -201 -408 -128 -447 -140 -495
-150 -25 -6 -108 -31 -185 -55 -77 -24 -252 -78 -390 -120 -137 -42 -251 -77
-253 -80 -2 -2 27 -17 65 -34 37 -17 84 -39 103 -49 l35 -18 0 -77 c-1 -88
-10 -103 -60 -98 -23 2 -45 -5 -65 -19 -24 -17 -54 -24 -138 -31 -59 -5 -112
-11 -119 -14 -7 -2 -16 -19 -20 -37 -6 -23 -18 -37 -41 -48 -39 -19 -41 -36
-4 -43 15 -3 39 -17 52 -30 14 -14 34 -26 45 -29 13 -2 19 -10 17 -23 -2 -17
-1 -17 8 -5 6 9 13 11 18 5 4 -5 30 -21 57 -35 28 -13 52 -27 55 -31 6 -7 46
-29 107 -59 23 -11 55 -31 70 -43 15 -12 50 -33 76 -47 43 -22 46 -26 27 -34
-21 -10 -28 -36 -9 -36 7 0 17 7 23 16 16 21 83 9 91 -16 3 -10 27 -27 54 -39
26 -11 53 -27 60 -34 6 -8 31 -22 56 -32 48 -18 54 -30 30 -61 -8 -10 -15 -25
-15 -31 0 -20 35 -15 55 7 25 27 61 25 81 -4 8 -14 28 -27 43 -31 16 -3 41
-19 56 -35 15 -15 41 -31 59 -34 18 -4 52 -21 76 -38 42 -31 43 -33 19 -38
-25 -6 -39 -44 -22 -61 15 -15 43 1 49 27 9 35 44 30 84 -11 19 -19 42 -35 52
-35 28 0 88 -32 88 -48 0 -8 -11 -23 -24 -33 -13 -10 -27 -30 -30 -44 -5 -19
-16 -27 -51 -36 -51 -13 -60 -39 -22 -63 40 -26 71 -29 91 -8 11 13 14 22 7
27 -6 3 -11 17 -11 30 0 16 7 25 25 29 13 3 32 20 40 36 18 34 40 38 74 11 23
-17 23 -21 11 -50 -10 -24 -10 -38 -2 -56 16 -34 29 -31 53 10 24 40 49 45 79
15 22 -22 26 -60 9 -77 -8 -8 -6 -19 5 -41 15 -28 15 -31 -2 -34 -9 -2 -32 -1
-51 3 -42 9 -58 3 -67 -24 -9 -28 23 -53 80 -61 36 -6 45 -12 50 -31 6 -24 69
-65 99 -65 8 0 30 -14 48 -30 42 -38 74 -55 118 -65 23 -5 31 -4 27 4 -4 6 -2
11 4 11 6 0 10 -8 9 -17 -6 -34 21 -61 78 -83 32 -12 72 -34 88 -49 41 -39 67
-51 110 -51 20 0 34 -4 31 -9 -11 -17 50 -70 109 -96 33 -14 71 -38 84 -52 14
-14 54 -39 90 -56 36 -16 85 -46 108 -67 22 -21 59 -44 82 -51 22 -6 50 -23
62 -35 22 -24 23 -24 271 -24 l248 0 10 26 c7 17 28 33 67 51 83 37 188 73
258 87 148 32 239 93 338 226 22 30 44 57 47 60 4 3 39 45 78 95 l72 90 0 246
0 246 -52 23 c-29 13 -74 31 -101 41 -26 10 -71 29 -100 43 -77 37 -194 86
-206 86 -6 0 -19 5 -29 10 -29 17 -485 210 -488 207 -2 -2 87 -43 199 -92 111
-48 280 -123 375 -166 95 -44 175 -79 177 -79 12 0 176 -82 172 -86 -5 -5
-114 37 -149 56 -9 5 -79 35 -154 65 -138 57 -300 126 -909 390 -429 186 -992
429 -1430 617 -192 82 -401 174 -463 204 -62 30 -116 54 -121 54 -4 0 -20 9
-35 21 -30 23 -36 73 -10 83 39 15 145 -5 221 -41 45 -22 85 -3 51 24 -25 20
-58 22 -59 5 -1 -10 -6 -2 -11 16 -9 26 -8 36 6 51 16 17 21 18 49 6 18 -7 51
-16 75 -20 23 -4 49 -13 56 -21 8 -8 26 -14 39 -14 14 0 30 -7 37 -15 7 -8 22
-15 34 -15 12 0 38 -9 59 -20 20 -11 48 -20 61 -20 13 0 29 -6 35 -14 6 -7 29
-16 51 -20 27 -4 40 -11 40 -22 0 -11 5 -14 17 -10 19 8 83 -11 83 -25 0 -5
10 -9 23 -9 12 0 31 -6 42 -14 35 -24 65 -29 65 -11 0 12 6 14 27 9 26 -7 27
-6 11 9 -9 9 -23 17 -30 17 -9 1 -7 5 5 14 9 7 17 18 17 25 0 12 31 14 65 5
22 -6 25 -35 10 -101 -6 -26 -3 -34 14 -45 12 -7 21 -18 21 -25 0 -8 14 -13
35 -13 19 0 35 -4 35 -10 0 -5 7 -10 15 -10 9 0 15 -9 15 -22 1 -21 2 -21 11
-5 5 9 16 17 23 17 7 0 12 14 13 36 1 20 4 56 8 80 8 54 36 66 95 39 60 -27
84 -57 76 -98 -5 -29 -2 -37 24 -60 28 -25 35 -42 31 -75 -1 -7 5 -15 14 -18
8 -3 15 -11 15 -18 0 -6 13 -11 29 -12 43 -2 91 -23 85 -39 -4 -8 2 -11 18 -8
32 6 79 -14 85 -36 4 -15 12 -18 42 -14 31 4 42 0 68 -25 18 -16 34 -27 37
-25 3 3 23 2 46 -2 34 -6 41 -10 37 -25 -5 -19 19 -37 25 -19 5 16 88 -13 100
-34 6 -12 16 -16 28 -12 25 8 93 -21 88 -37 -3 -7 2 -18 11 -24 12 -9 18 -8
26 3 10 13 17 14 48 2 20 -7 39 -21 43 -31 4 -13 16 -18 42 -18 64 0 77 -8 89
-53 13 -48 11 -53 -14 -38 -12 7 -13 10 -4 11 11 0 11 3 1 15 -8 10 -31 15
-66 15 -29 0 -56 5 -60 11 -3 6 -19 9 -34 6 -17 -4 -35 0 -46 9 -18 14 -18 15
3 9 12 -3 24 -1 28 5 4 6 -7 10 -29 10 -19 0 -38 5 -42 11 -3 6 -19 9 -35 5
-21 -4 -34 0 -48 16 -11 11 -26 18 -33 15 -8 -2 -25 1 -38 8 -21 11 -27 11
-42 -8 -10 -11 -21 -17 -25 -13 -4 3 -1 12 5 18 14 14 16 32 4 24 -5 -3 -19 4
-32 16 -12 11 -35 21 -49 22 -15 1 -36 9 -46 19 -28 29 -65 40 -83 25 -12 -10
-16 -10 -19 0 -3 6 -11 12 -19 12 -8 0 -14 6 -14 13 0 20 -43 15 -61 -7 -16
-20 -17 -19 -23 11 -12 55 -80 91 -95 51 -9 -24 -15 -17 -25 26 -5 21 -11 27
-26 23 -13 -3 -17 -1 -13 9 3 9 -2 14 -16 14 -12 0 -21 -4 -21 -10 0 -5 -7
-10 -15 -10 -8 0 -15 4 -15 8 0 5 -15 17 -34 27 -29 16 -37 17 -50 6 -29 -24
-11 -61 30 -61 12 0 27 -7 34 -15 6 -8 37 -23 68 -35 32 -11 69 -27 84 -35 14
-8 38 -16 52 -17 14 -1 26 -5 26 -9 0 -12 58 -31 78 -25 11 4 31 1 46 -5 27
-13 35 -29 14 -30 -7 0 -2 -5 12 -10 17 -7 31 -6 46 2 25 13 46 5 38 -15 -8
-20 35 -46 73 -46 18 0 33 -4 33 -8 0 -17 62 -44 87 -37 19 4 29 1 40 -15 18
-25 58 -46 105 -55 20 -4 39 -13 41 -20 3 -7 18 -16 34 -19 30 -8 134 -51 220
-92 28 -13 57 -24 63 -24 6 0 37 -13 70 -30 33 -17 66 -30 74 -30 8 0 40 -14
71 -30 31 -17 63 -30 71 -30 7 0 67 -25 131 -56 116 -55 276 -128 321 -145
l22 -9 0 433 0 433 -102 33 c-330 107 -1320 434 -1613 534 -316 108 -502 182
-532 212 -11 11 -11 19 -3 35 22 42 97 39 257 -11 54 -16 113 -36 131 -44 18
-8 42 -15 54 -15 20 0 21 1 3 20 -10 11 -30 20 -44 20 -14 0 -35 7 -45 15 -11
8 -26 15 -34 15 -8 0 -29 9 -48 20 l-32 21 23 25 c13 14 25 35 27 47 2 12 13
27 25 33 l23 11 -25 11 c-33 15 -26 16 -125 -17z m-676 -378 c57 -25 75 -39
76 -55 0 -7 -20 -5 -35 4 -5 3 -32 9 -59 13 -37 5 -46 9 -35 17 11 8 10 9 -3
4 -10 -3 -24 -9 -32 -12 -9 -3 -16 4 -20 20 -3 14 -13 26 -21 26 -7 0 -17 5
-21 12 -12 19 81 1 150 -29z m156 -73 c0 -5 -4 -10 -9 -10 -6 0 -13 5 -16 10
-3 6 1 10 9 10 9 0 16 -4 16 -10z m885 -309 c78 -35 78 -72 -1 -112 -27 -13
-52 -28 -56 -34 -5 -6 -8 -4 -8 5 0 8 -8 20 -19 27 -21 13 -34 72 -19 90 6 7
8 20 4 28 -8 22 48 20 99 -4z m328 -121 c105 -36 237 -89 255 -103 10 -8 -3
-16 -55 -33 -84 -28 -105 -29 -179 -5 -64 22 -119 34 -146 33 -9 0 -19 6 -22
14 -4 10 -13 13 -25 9 -26 -8 -41 20 -41 74 l0 41 63 0 c43 0 89 -9 150 -30z
m17 -330 c0 -5 -4 -10 -10 -10 -5 0 -10 5 -10 10 0 6 5 10 10 10 6 0 10 -4 10
-10z m550 -110 c-19 -13 -30 -13 -30 0 0 6 10 10 23 10 18 0 19 -2 7 -10z m65
-20 c-3 -5 1 -10 7 -13 7 -2 10 -8 6 -12 -4 -4 -15 -4 -25 0 -10 5 -22 7 -28
6 -33 -9 -45 -9 -50 0 -4 5 3 9 14 9 11 0 26 6 33 13 13 14 52 11 43 -3z
m-163 -2 c-9 -9 -15 -9 -24 0 -9 9 -7 12 12 12 19 0 21 -3 12 -12z m228 -28
c0 -5 -7 -10 -16 -10 -8 0 -12 5 -9 10 3 6 10 10 16 10 5 0 9 -4 9 -10z m-90
-20 c0 -5 -4 -10 -10 -10 -5 0 -10 5 -10 10 0 6 5 10 10 10 6 0 10 -4 10 -10z
m170 -15 c0 -8 -9 -15 -20 -15 -11 0 -20 5 -20 11 0 5 5 7 10 4 6 -3 10 -1 10
4 0 6 5 11 10 11 6 0 10 -7 10 -15z m56 -22 c-4 -4 -19 -8 -34 -10 -23 -2 -24
-1 -7 7 24 11 51 13 41 3z m-96 -22 c0 -6 -4 -13 -10 -16 -5 -3 -10 1 -10 9 0
9 5 16 10 16 6 0 10 -4 10 -9z m177 -17 c-9 -9 -28 6 -21 18 4 6 10 6 17 -1 6
-6 8 -13 4 -17z m-2675 -79 c-8 -59 -7 -67 10 -76 21 -11 23 -25 5 -43 -11
-11 -16 -11 -31 -1 -15 11 -16 22 -10 74 4 34 11 64 15 67 5 3 10 22 10 42 1
20 3 30 6 20 2 -9 0 -46 -5 -83z m2603 75 c-3 -5 -10 -10 -16 -10 -5 0 -9 5
-9 10 0 6 7 10 16 10 8 0 12 -4 9 -10z m140 -20 c-3 -5 -13 -10 -21 -10 -8 0
-12 5 -9 10 3 6 13 10 21 10 8 0 12 -4 9 -10z m-1736 -47 c20 -17 20 -20 7
-71 -8 -29 -12 -70 -10 -91 4 -33 0 -44 -23 -65 -15 -14 -32 -26 -37 -26 -10
0 -2 112 16 208 6 34 15 62 19 62 4 0 16 -8 28 -17z m110 -52 c11 -7 11 -15 1
-47 -16 -49 -28 -64 -45 -58 -9 4 -12 17 -9 42 9 71 19 84 53 63z m-100 -250
c9 -15 6 -22 -14 -35 -30 -20 -48 -20 -85 -1 -36 18 -38 33 -7 39 12 3 31 7
42 9 41 9 55 7 64 -12z m796 -83 c14 -6 25 -14 24 -17 -3 -17 -90 -83 -104
-77 -23 8 -18 29 16 69 36 42 31 40 64 25z m65 -118 c0 -5 -2 -10 -4 -10 -3 0
-8 5 -11 10 -3 6 -1 10 4 10 6 0 11 -4 11 -10z m-80 -20 c0 -5 -7 -10 -15 -10
-8 0 -15 5 -15 10 0 6 7 10 15 10 8 0 15 -4 15 -10z m-167 -47 c-7 -2 -19 -2
-25 0 -7 3 -2 5 12 5 14 0 19 -2 13 -5z m-48 -12 c-11 -11 -105 -26 -105 -17
0 7 58 24 90 25 15 1 20 -3 15 -8z m410 -8 c33 -16 36 -20 31 -53 -3 -19 -8
-56 -11 -81 -4 -35 -22 -69 -78 -149 -70 -100 -99 -131 -112 -118 -9 8 34 188
50 211 7 10 11 26 8 36 -2 9 7 29 21 44 13 15 21 29 17 32 -13 7 11 95 25 95
7 0 29 -8 49 -17z m263 -22 c11 -6 10 -10 -3 -21 -24 -20 -109 -2 -113 24 -4
17 0 18 49 12 29 -4 59 -11 67 -15z m-1550 -7 c31 -21 28 -38 -5 -30 -16 4
-36 8 -45 9 -10 1 -18 9 -18 19 0 23 37 24 68 2z m135 -105 c29 -33 34 -49 16
-49 -7 0 -9 -10 -7 -24 4 -21 0 -25 -30 -30 -19 -3 -38 -3 -42 -1 -15 9 -21
78 -9 106 15 37 38 37 72 -2z m-175 -11 c5 -26 -35 -23 -48 3 -11 19 -9 20 17
17 17 -2 29 -10 31 -20z m337 -52 c16 -12 17 -17 6 -45 -8 -17 -11 -44 -8 -60
7 -33 -9 -45 -48 -35 -12 3 -26 1 -30 -5 -4 -7 -16 0 -31 18 -27 33 -33 81 -9
81 8 0 29 14 47 30 35 34 46 36 73 16z m1257 -98 c-10 -10 -16 -8 -30 5 -15
16 -15 19 -2 27 21 13 49 -15 32 -32z m-136 -5 c-10 -10 -19 5 -10 18 6 11 8
11 12 0 2 -7 1 -15 -2 -18z m159 -53 c4 -6 9 -45 11 -88 6 -91 -5 -113 -45
-85 -21 14 -22 21 -17 72 11 87 32 131 51 101z m-965 -77 c0 -19 -8 -45 -18
-58 l-18 -23 -27 29 c-28 30 -34 49 -17 49 6 0 9 4 8 9 -5 15 34 39 54 33 13
-3 18 -14 18 -39z m138 8 c9 -5 36 -15 60 -22 23 -7 42 -18 42 -25 0 -7 14
-22 30 -34 17 -12 30 -18 30 -15 0 4 7 -1 16 -9 8 -9 24 -16 34 -16 11 0 24
-9 30 -19 5 -11 18 -22 29 -26 21 -6 35 -45 21 -59 -9 -9 -43 9 -75 40 -12 13
-35 19 -76 20 -64 1 -84 12 -93 49 -7 29 -49 43 -70 25 -22 -17 -56 4 -56 35
0 25 31 65 50 65 6 0 18 -4 28 -9z m632 -36 c0 -24 -5 -35 -15 -35 -10 0 -15
10 -15 29 0 25 6 33 28 40 1 1 2 -15 2 -34z"/>
<path d="M5816 3078 c3 -5 9 -6 14 -3 5 3 11 1 15 -5 3 -5 11 -10 16 -10 6 0
4 6 -3 13 -14 15 -50 19 -42 5z"/>
<path d="M4860 3060 l-25 -8 28 -1 c15 -1 27 4 27 9 0 6 -1 10 -2 9 -2 -1 -14
-5 -28 -9z"/>
<path d="M4808 3043 c7 -3 16 -2 19 1 4 3 -2 6 -13 5 -11 0 -14 -3 -6 -6z"/>
<path d="M4827 3032 c-29 -3 -37 -7 -33 -18 3 -9 1 -12 -4 -9 -6 3 -10 -1 -10
-9 0 -10 6 -13 18 -9 14 5 15 4 6 -8 -30 -39 -22 -66 10 -33 15 14 16 13 16
-10 0 -19 5 -26 20 -26 21 0 41 35 33 56 -2 7 1 15 6 19 6 3 9 11 6 16 -4 5 1
12 9 15 41 16 7 23 -77 16z"/>
<path d="M4000 2940 c0 -5 5 -10 10 -10 6 0 10 5 10 10 0 6 -4 10 -10 10 -5 0
-10 -4 -10 -10z"/>
<path d="M4039 2901 l-24 -19 88 -27 c49 -15 91 -25 93 -22 2 2 -9 23 -26 45
-26 37 -35 42 -69 42 -23 0 -48 -8 -62 -19z"/>
<path d="M8235 2840 c3 -5 13 -10 21 -10 8 0 12 5 9 10 -3 6 -13 10 -21 10 -8
0 -12 -4 -9 -10z"/>
<path d="M8330 2810 c20 -13 33 -13 25 0 -3 6 -14 10 -23 10 -15 0 -15 -2 -2
-10z"/>
<path d="M5555 2800 c6 -10 4 -12 -11 -6 -15 6 -17 5 -6 -5 9 -9 15 -10 23 -2
8 8 7 13 -2 18 -8 6 -10 4 -4 -5z"/>
<path d="M8404 2785 c11 -8 27 -15 35 -15 11 0 10 4 -5 15 -10 8 -26 14 -34
14 -11 0 -10 -3 4 -14z"/>
<path d="M8477 2774 c-11 -11 3 -24 24 -24 12 0 19 5 17 13 -5 14 -31 21 -41
11z"/>
<path d="M5230 2750 c-12 -8 -10 -10 9 -10 13 0 21 -3 18 -7 -4 -3 -2 -12 5
-20 6 -7 9 -15 7 -17 -7 -6 -814 -213 -2009 -515 -630 -160 -1148 -292 -1660
-424 -118 -31 -287 -74 -375 -97 -198 -51 -1042 -262 -1147 -287 -77 -18 -78
-19 -78 -49 l0 -32 168 45 c515 136 936 244 1772 453 551 138 1751 443 3243
823 147 37 157 41 134 53 -13 8 -32 32 -41 54 -17 42 -22 46 -46 30z"/>
<path d="M8570 2730 c8 -5 20 -10 25 -10 6 0 3 5 -5 10 -8 5 -19 10 -25 10 -5
0 -3 -5 5 -10z"/>
<path d="M6980 2552 c0 -21 18 -42 36 -42 19 0 29 41 13 51 -24 15 -49 10 -49
-9z"/>
<path d="M7072 2523 c-9 -16 -8 -24 2 -32 21 -18 40 10 22 34 -13 18 -14 18
-24 -2z"/>
<path d="M7156 2474 c-7 -19 -7 -20 19 -28 11 -3 26 -1 34 3 12 8 12 12 2 25
-17 21 -47 20 -55 0z"/>
<path d="M7231 2447 c-10 -12 -8 -18 11 -31 12 -9 31 -16 42 -16 11 0 27 -7
37 -16 13 -12 28 -15 54 -10 19 4 35 10 35 14 0 18 -26 32 -58 32 -19 0 -40 7
-46 14 -17 23 -60 30 -75 13z"/>
<path d="M7690 2400 c0 -5 5 -10 11 -10 5 0 7 5 4 10 -3 6 -8 10 -11 10 -2 0
-4 -4 -4 -10z"/>
<path d="M7422 2378 c-7 -7 -12 -15 -12 -20 0 -14 40 -28 64 -22 25 6 25 7 8
30 -19 26 -42 30 -60 12z"/>
<path d="M7517 2343 c-13 -12 -7 -41 9 -47 21 -8 26 -7 44 4 12 7 12 12 -4 29
-19 21 -37 26 -49 14z"/>
<path d="M7615 2305 c-3 -8 -7 -21 -9 -29 -6 -18 18 -28 50 -20 27 7 29 12 11
35 -18 23 -47 31 -52 14z"/>
<path d="M7716 2261 c-4 -6 -5 -15 -2 -20 4 -5 0 -11 -6 -14 -9 -3 -9 -7 3
-11 8 -4 28 -2 43 4 22 8 25 12 14 24 -7 8 -17 12 -22 9 -4 -3 -12 0 -16 7 -5
9 -9 9 -14 1z"/>
<path d="M5240 2240 c-49 -16 -318 -100 -550 -171 -129 -39 -236 -72 -237 -74
-2 -1 96 -73 217 -161 121 -87 220 -161 220 -165 0 -3 -6 -6 -12 -7 -81 -7
-217 -23 -233 -26 -11 -3 -28 -5 -37 -5 -42 -2 -10 -33 93 -91 61 -34 130 -75
153 -90 221 -150 469 -280 535 -280 9 0 28 14 43 30 14 17 34 30 45 30 10 0
135 -84 278 -186 143 -102 337 -239 430 -304 242 -170 226 -154 241 -241 11
-65 10 -119 -2 -119 -5 0 -244 162 -454 308 -191 133 -192 133 -265 191 -49
38 -59 43 -90 37 -29 -6 -35 -11 -30 -25 11 -36 -5 -50 -63 -57 -32 -4 -93
-18 -137 -31 -44 -13 -118 -33 -165 -44 -213 -52 -345 -82 -475 -109 -77 -17
-151 -34 -165 -39 -14 -5 -49 -13 -78 -16 -29 -4 -80 -15 -115 -26 -77 -24
-114 -24 -149 -1 -29 19 -342 296 -398 352 -19 19 -53 55 -75 80 -23 25 -95
93 -160 151 -66 59 -132 120 -147 135 -38 41 -59 95 -50 130 13 47 4 74 -24
74 -37 0 -64 -33 -64 -79 0 -55 12 -81 55 -123 l37 -36 -1 -118 c-1 -64 -4
-120 -6 -124 -2 -3 -6 -118 -10 -255 -5 -257 -14 -367 -40 -502 -8 -43 -15
-80 -15 -83 0 -3 -5 2 -10 10 -16 24 -32 -8 -25 -48 7 -39 -5 -65 -16 -36 -6
14 -8 9 -8 -18 -1 -37 -2 -38 -41 -38 -39 0 -39 0 -23 -20 17 -20 29 -20 2498
-19 1923 0 2476 3 2461 12 -180 114 -512 326 -699 447 -131 85 -273 177 -315
205 -42 27 -228 149 -412 270 -184 122 -390 257 -458 301 -67 43 -171 111
-230 149 -59 39 -190 124 -292 190 -517 333 -740 481 -770 512 -3 3 15 -5 40
-17 25 -12 40 -17 33 -10 -14 15 5 40 25 33 7 -3 12 -2 11 3 -3 20 2 34 12 34
5 0 8 -4 5 -9 -4 -5 3 -7 13 -4 11 3 36 -6 57 -21 39 -26 84 -35 84 -16 0 6 7
10 16 10 14 0 14 3 4 16 -11 13 -10 19 9 37 17 17 21 18 15 5 -4 -12 -1 -18 9
-18 8 0 17 7 21 15 3 8 18 15 33 16 24 0 25 1 8 8 -11 5 -25 4 -33 -2 -17 -13
-29 0 -14 15 32 32 -8 69 -49 47 -15 -7 -17 -6 -13 6 7 17 -7 18 -46 5z m25
-70 c3 -5 1 -10 -4 -10 -6 0 -11 5 -11 10 0 6 2 10 4 10 3 0 8 -4 11 -10z m35
0 c0 -5 -2 -10 -4 -10 -3 0 -8 5 -11 10 -3 6 -1 10 4 10 6 0 11 -4 11 -10z
m-70 -44 c0 -3 -4 -8 -10 -11 -5 -3 -10 -1 -10 4 0 6 5 11 10 11 6 0 10 -2 10
-4z m-1386 -1303 c39 -43 114 -123 166 -178 142 -149 273 -295 292 -324 34
-50 45 -45 -237 -102 -159 -32 -311 -46 -333 -31 -11 8 -14 63 -13 278 0 148
4 306 7 352 6 73 9 82 27 82 12 0 48 -31 91 -77z m1116 -187 c0 -8 -4 -17 -9
-21 -12 -7 -24 12 -16 25 9 15 25 12 25 -4z m-150 -84 c0 -10 -22 -32 -32 -32
-4 0 -8 9 -8 20 0 13 7 20 20 20 11 0 20 -4 20 -8z m-86 -38 c10 -27 7 -44 -9
-44 -16 0 -36 39 -28 53 8 13 31 8 37 -9z m296 -29 c0 -9 -7 -18 -16 -22 -18
-7 -39 11 -30 26 11 17 46 13 46 -4z m-33 -61 c9 -24 -15 -40 -101 -62 -72
-19 -120 -42 -88 -42 24 0 11 -30 -15 -35 -16 -4 -35 -9 -43 -13 -23 -11 -60
-2 -60 14 0 15 9 17 48 14 25 -2 29 12 7 30 -32 27 -3 86 37 77 13 -3 55 3 93
13 88 23 114 24 122 4z m-357 -100 c0 -8 -4 -12 -10 -9 -5 3 -10 10 -10 16 0
5 5 9 10 9 6 0 10 -7 10 -16z m2233 -68 c7 -18 -3 -56 -14 -56 -5 0 -9 16 -9
35 0 35 13 47 23 21z m-1367 -37 c3 -6 1 -16 -4 -21 -13 -13 -45 8 -36 23 7
12 31 11 40 -2z m-376 -34 c0 -8 -7 -15 -15 -15 -8 0 -15 7 -15 15 0 8 7 15
15 15 8 0 15 -7 15 -15z m-40 -80 c0 -8 -6 -15 -14 -15 -17 0 -28 14 -19 24
12 12 33 6 33 -9z m-1750 -85 c0 -5 -2 -10 -4 -10 -3 0 -8 5 -11 10 -3 6 -1
10 4 10 6 0 11 -4 11 -10z"/>
<path d="M7804 2215 c-10 -24 2 -42 35 -53 25 -9 29 -8 24 4 -3 9 1 14 12 14
9 0 15 6 12 13 -2 6 -10 11 -17 9 -8 -2 -10 3 -7 13 5 11 -1 15 -24 15 -17 0
-32 -6 -35 -15z"/>
<path d="M7903 2185 c-17 -19 -16 -40 2 -55 20 -17 95 4 95 25 0 8 -6 14 -12
13 -7 -2 -12 3 -10 10 1 6 -4 12 -10 12 -7 0 -22 2 -33 5 -11 3 -26 -2 -32
-10z"/>
<path d="M5387 2116 c-9 -13 -29 -26 -46 -29 -24 -5 -31 -12 -31 -31 0 -13 7
-26 15 -30 22 -8 47 4 41 20 -4 9 2 14 17 15 16 1 17 3 5 6 -16 4 -16 5 0 25
9 11 23 26 30 34 11 12 11 14 -1 14 -8 0 -22 -11 -30 -24z"/>
<path d="M5548 2103 c6 -2 18 -2 25 0 6 3 1 5 -13 5 -14 0 -19 -2 -12 -5z"/>
<path d="M8248 2093 c7 -3 16 -2 19 1 4 3 -2 6 -13 5 -11 0 -14 -3 -6 -6z"/>
<path d="M5496 2065 c4 -8 10 -15 16 -15 5 0 6 -5 2 -12 -4 -7 -3 -8 4 -4 17
10 15 33 -4 40 -22 9 -24 8 -18 -9z"/>
<path d="M5430 2050 c0 -5 -7 -7 -15 -4 -10 4 -18 -3 -25 -22 -9 -24 -8 -31 6
-41 26 -19 32 -17 49 17 10 19 20 28 28 24 7 -4 3 2 -7 14 -20 23 -36 29 -36
12z"/>
<path d="M5545 2030 c-4 -6 -2 -9 4 -8 5 2 17 -6 25 -17 13 -17 15 -18 16 -3
0 9 3 18 8 21 4 2 2 2 -5 1 -7 -2 -15 1 -18 6 -8 13 -22 13 -30 0z"/>
<path d="M5490 2001 c0 -8 -8 -10 -20 -6 -26 8 -26 -7 0 -30 15 -14 17 -20 8
-26 -9 -6 -8 -10 6 -15 18 -7 39 12 30 27 -2 5 4 6 15 4 13 -2 21 3 25 18 6
26 7 25 -32 33 -22 4 -32 3 -32 -5z"/>
<path d="M5643 1965 c-9 -15 -28 -23 -64 -24 -22 -1 -31 -58 -11 -66 7 -3 29
-5 47 -5 29 0 33 -3 30 -20 -3 -15 3 -24 20 -32 26 -12 55 -5 55 12 0 6 -5 8
-11 4 -8 -4 -9 3 -4 25 5 26 4 30 -9 25 -9 -3 -23 -1 -31 6 -12 10 -15 10 -15
0 0 -10 -3 -10 -15 0 -20 16 -19 22 4 49 12 13 25 20 32 16 7 -5 10 -3 7 5 -7
21 -25 23 -35 5z"/>
<path d="M8790 1879 c0 -5 5 -7 10 -4 6 3 10 8 10 11 0 2 -4 4 -10 4 -5 0 -10
-5 -10 -11z"/>
<path d="M5815 1845 c0 -14 2 -25 5 -25 9 0 29 38 23 44 -14 14 -28 4 -28 -19z"/>
<path d="M5740 1816 c0 -8 -2 -21 -5 -28 -4 -9 5 -19 22 -27 23 -11 29 -10 40
5 16 22 16 37 1 52 -17 17 -58 15 -58 -2z"/>
<path d="M9028 1788 c5 -5 16 -8 23 -6 8 3 3 7 -10 11 -17 4 -21 3 -13 -5z"/>
<path d="M3650 1749 c-69 -21 -144 -46 -168 -55 l-43 -16 3 -71 3 -72 30 1
c17 1 62 13 100 28 44 17 99 30 147 33 97 7 106 16 85 82 -9 27 -13 63 -11 80
4 22 1 31 -8 30 -7 0 -69 -18 -138 -40z"/>
<path d="M5864 1763 c-28 -5 -49 -49 -28 -57 37 -14 92 1 65 18 -5 3 -7 15 -4
26 3 11 1 19 -3 19 -5 -1 -19 -4 -30 -6z"/>
<path d="M8490 1766 c0 -2 7 -7 16 -10 8 -3 12 -2 9 4 -6 10 -25 14 -25 6z"/>
<path d="M5929 1726 c8 -10 9 -16 1 -21 -5 -3 -10 -17 -10 -30 0 -18 7 -26 25
-31 34 -8 55 1 55 25 0 11 3 28 6 38 5 15 4 15 -5 3 -7 -10 -11 -11 -11 -2 0
6 -9 12 -19 12 -11 0 -23 5 -26 10 -3 6 -11 10 -17 10 -7 0 -6 -5 1 -14z"/>
<path d="M6020 1729 c0 -5 5 -7 10 -4 6 3 10 8 10 11 0 2 -4 4 -10 4 -5 0 -10
-5 -10 -11z"/>
<path d="M8590 1720 c8 -5 20 -10 25 -10 6 0 3 5 -5 10 -8 5 -19 10 -25 10 -5
0 -3 -5 5 -10z"/>
<path d="M6152 1698 c-7 -7 -12 -16 -12 -20 0 -15 15 -8 28 12 13 22 3 27 -16
8z"/>
<path d="M8670 1685 c14 -8 30 -14 35 -14 6 0 -1 6 -15 14 -14 8 -29 14 -35
14 -5 0 1 -6 15 -14z"/>
<path d="M6027 1632 c-6 -33 8 -52 39 -52 17 0 28 8 34 25 5 14 15 25 22 25 9
0 9 3 0 12 -7 7 -30 13 -51 14 -35 2 -40 -1 -44 -24z"/>
<path d="M8750 1650 c8 -5 20 -10 25 -10 6 0 3 5 -5 10 -8 5 -19 10 -25 10 -5
0 -3 -5 5 -10z"/>
<path d="M8873 1599 c27 -16 87 -40 87 -35 0 6 -89 46 -99 46 -3 0 2 -5 12
-11z"/>
<path d="M3124 1572 c-49 -16 -51 -18 -42 -42 5 -14 6 -46 3 -72 -6 -41 -4
-48 10 -48 9 0 13 4 10 10 -7 11 5 113 13 105 8 -8 32 16 26 26 -3 5 4 9 15 9
11 0 22 4 26 10 3 5 12 7 19 4 8 -3 17 -1 21 5 9 16 -41 12 -101 -7z"/>
<path d="M6127 1578 c-8 -5 -7 -9 5 -13 9 -4 14 -14 11 -24 -5 -19 20 -32 45
-24 13 5 16 42 4 59 -8 12 -47 13 -65 2z"/>
<path d="M6346 1572 c-8 -13 11 -35 23 -28 16 10 14 36 -3 36 -8 0 -17 -4 -20
-8z"/>
<path d="M8980 1550 c8 -5 20 -10 25 -10 6 0 3 5 -5 10 -8 5 -19 10 -25 10 -5
0 -3 -5 5 -10z"/>
<path d="M6240 1504 c-23 -25 -24 -27 -5 -40 10 -8 32 -14 48 -14 22 0 28 4
23 16 -3 9 -6 27 -6 40 0 32 -28 31 -60 -2z"/>
<path d="M6460 1510 c0 -5 4 -10 9 -10 6 0 13 5 16 10 3 6 -1 10 -9 10 -9 0
-16 -4 -16 -10z"/>
<path d="M6373 1454 c-39 -17 -48 -31 -33 -49 13 -15 69 -21 71 -7 0 4 2 19 4
34 5 35 -2 38 -42 22z"/>
<path d="M2460 1383 c-65 -21 -1019 -314 -1185 -364 -312 -94 -900 -269 -937
-279 -26 -7 -53 -19 -59 -26 -6 -8 -28 -14 -48 -14 -29 0 -44 -7 -68 -34 -25
-26 -44 -35 -80 -40 -92 -13 -83 21 -83 -322 l0 -304 1490 0 c1027 0 1490 3
1490 10 0 16 31 44 63 58 37 16 77 15 77 -1 0 -19 43 -37 61 -26 8 5 22 9 32
9 10 0 25 7 33 15 14 13 12 15 -15 15 -24 0 -31 4 -31 20 0 10 -11 36 -25 56
-14 20 -25 43 -25 51 0 7 -11 18 -24 22 -28 11 -39 46 -20 62 12 10 12 13 0
23 -19 15 -43 95 -40 131 4 51 15 100 24 108 4 5 5 36 3 69 -6 57 -5 60 28 94
18 18 29 34 24 34 -4 0 -1 8 7 18 9 10 15 33 14 57 -1 32 -4 39 -18 37 -10 -2
-28 6 -40 18 -17 16 -19 23 -10 32 7 7 12 19 12 29 0 25 45 12 59 -17 6 -13
15 -24 20 -24 5 0 11 -8 14 -17 2 -10 2 20 -1 67 -4 67 -9 88 -23 98 -18 12
-18 15 4 57 12 25 28 45 35 45 19 0 17 100 -3 100 -8 0 -15 6 -15 13 0 6 -7
21 -15 31 -13 18 -16 18 -27 5 -16 -20 -81 -39 -195 -59 -53 -9 -103 -1 -129
21 -17 14 -80 -1 -123 -29 -14 -10 -56 -29 -94 -44 l-68 -26 -10 24 c-11 31
-11 104 1 164 5 25 5 48 2 51 -4 4 -41 -4 -82 -18z m571 -286 c-13 -13 -26 -3
-16 12 3 6 11 8 17 5 6 -4 6 -10 -1 -17z m-559 -569 c2 -12 10 -23 18 -25 13
-4 13 -3 0 6 -12 8 -5 11 27 11 24 0 43 -5 46 -12 4 -10 8 -10 15 1 10 14 51
7 65 -13 5 -8 10 -6 17 4 14 22 12 8 -5 -33 -8 -20 -15 -47 -15 -61 0 -13 -6
-27 -12 -30 -10 -5 -10 -7 -1 -12 8 -4 6 -11 -8 -25 -16 -16 -19 -29 -14 -63
2 -24 7 -51 11 -59 6 -17 -37 -64 -82 -89 -30 -16 -83 -33 -136 -42 -14 -2
-36 -10 -48 -16 -12 -6 -24 -10 -26 -7 -2 2 7 53 20 113 13 60 27 128 31 152
4 24 22 77 41 117 19 41 34 81 34 89 0 24 18 19 22 -6z m-2285 -26 c28 -38 17
-56 -24 -41 -36 12 -49 35 -32 55 17 21 33 17 56 -14z m-18 -184 c-20 -62 -31
-93 -41 -115 -10 -21 -11 -21 -39 10 -33 36 -33 37 -16 61 13 18 15 17 34 -8
19 -23 22 -24 25 -9 3 10 -4 28 -15 40 -27 31 -16 53 27 53 35 0 35 0 25 -32z
m-70 -198 c-11 -30 -29 -41 -29 -18 0 10 28 48 36 48 2 0 -2 -13 -7 -30z"/>
<path d="M6504 1395 c-10 -8 -27 -15 -36 -15 -12 0 -18 -8 -18 -24 0 -18 8
-27 30 -35 26 -9 60 -6 60 5 0 2 -5 15 -12 29 -9 21 -9 28 1 34 8 5 9 11 4 14
-6 4 -19 0 -29 -8z"/>
<path d="M6680 1369 c0 -18 2 -19 15 -9 15 12 12 30 -6 30 -5 0 -9 -10 -9 -21z"/>
<path d="M6573 1320 c-28 -11 -29 -31 -4 -54 47 -43 134 -39 110 5 -6 11 -8
27 -5 34 8 23 -58 32 -101 15z"/>
<path d="M6717 1235 c-15 -14 -27 -30 -27 -35 0 -15 36 -30 69 -30 27 0 31 4
31 26 0 31 -17 64 -33 64 -7 0 -25 -11 -40 -25z"/>
<path d="M6870 1165 c-9 -11 -16 -13 -24 -5 -14 14 -43 13 -49 -2 -7 -21 10
-44 43 -58 27 -11 33 -10 50 5 14 12 18 25 14 39 -10 32 -20 38 -34 21z"/>
<path d="M7010 1125 c-13 -13 -32 -28 -44 -31 -20 -7 -46 -28 -46 -38 0 -13
67 -46 93 -46 25 0 27 3 27 37 0 20 3 33 7 30 12 -13 33 15 33 44 0 24 -4 29
-23 29 -13 0 -34 -11 -47 -25z"/>
<path d="M7196 914 c-8 -22 1 -34 40 -50 55 -23 99 17 62 54 -18 18 -95 15
-102 -4z"/>
<path d="M3281 144 c0 -11 3 -14 6 -6 3 7 2 16 -1 19 -3 4 -6 -2 -5 -13z"/>
</g>
</svg>
